<?xml version="1.0" standalone="no"?>
  <!DOCTYPE svg PUBLIC "-//W3C//DTD SVG 1.1//EN" "http://www.w3.org/Graphics/SVG/1.1/DTD/svg11.dtd" >
  <svg>
  <metadata>
  Created by font-carrier
  </metadata>
  <defs>
  <font id="Montserrat-Italic" horiz-adv-x="1618" vert-adv-y="1618" >
    <font-face
      
      font-family="Montserrat"
      
      font-weight="400"
      
      font-stretch="normal"
      
      units-per-em="1000"
      
      ascent="968"
      
      descent="-251"
      
    />
      <missing-glyph />

      

      
      <glyph glyph-name="uni41" unicode="&#x41;" d="M542 187L151 187L30 0L-50 0L410 700L483 700L663 0L589 0L542 187M528 247L433 625L189 247L528 247Z"  horiz-adv-x="717" vert-adv-y="1000"  />

      
      <glyph glyph-name="unic1" unicode="&#xc1;" d="M542 187L151 187L30 0L-50 0L410 700L483 700L663 0L589 0L542 187M528 247L433 625L189 247L528 247M542 881L639 881L464 757L390 757L542 881Z"  horiz-adv-x="717" vert-adv-y="1000"  />

      
      <glyph glyph-name="uni0102" unicode="&#x0102;" d="M542 187L151 187L30 0L-50 0L410 700L483 700L663 0L589 0L542 187M528 247L433 625L189 247L528 247M468 752Q404 752 364.50 787.50Q325 823 329 881L378 881Q376 842 401.50 819Q427 796 472 796Q515 796 545.50 819Q576 842 582 881L634 881Q624 822 578.50 787Q533 752 468 752Z"  horiz-adv-x="717" vert-adv-y="1000"  />

      
      <glyph glyph-name="uni1EAE" unicode="&#x1EAE;" d="M542 187L151 187L30 0L-50 0L410 700L483 700L663 0L589 0L542 187M528 247L433 625L189 247L528 247M467 752Q404 752 365 778.50Q326 805 323 851L371 851Q375 823 400.50 808Q426 793 469 793Q514 793 542 808Q570 823 579 851L629 851Q618 805 574 778.50Q530 752 467 752M551 979L640 979L483 870L417 870L551 979Z"  horiz-adv-x="717" vert-adv-y="1000"  />

      
      <glyph glyph-name="uni1EB6" unicode="&#x1EB6;" d="M542 187L151 187L30 0L-50 0L410 700L483 700L663 0L589 0L542 187M528 247L433 625L189 247L528 247M271-190Q255-190 244.50-179.50Q234-169 234-152Q234-132 248.50-118Q263-104 283-104Q299-104 309.50-114.50Q320-125 320-141Q320-162 306-176Q292-190 271-190M468 752Q404 752 364.50 787.50Q325 823 329 881L378 881Q376 842 401.50 819Q427 796 472 796Q515 796 545.50 819Q576 842 582 881L634 881Q624 822 578.50 787Q533 752 468 752Z"  horiz-adv-x="717" vert-adv-y="1000"  />

      
      <glyph glyph-name="uni1EB0" unicode="&#x1EB0;" d="M542 187L151 187L30 0L-50 0L410 700L483 700L663 0L589 0L542 187M528 247L433 625L189 247L528 247M467 752Q404 752 365 778.50Q326 805 323 851L371 851Q375 823 400.50 808Q426 793 469 793Q514 793 542 808Q570 823 579 851L629 851Q618 805 574 778.50Q530 752 467 752M356 979L443 979L542 870L479 870L356 979Z"  horiz-adv-x="717" vert-adv-y="1000"  />

      
      <glyph glyph-name="uni1EB2" unicode="&#x1EB2;" d="M542 187L151 187L30 0L-50 0L410 700L483 700L663 0L589 0L542 187M528 247L433 625L189 247L528 247M467 752Q404 752 365 778.50Q326 805 323 851L371 851Q375 823 400.50 808Q426 793 469 793Q514 793 542 808Q570 823 579 851L629 851Q618 805 574 778.50Q530 752 467 752M456 869Q504 889 504 923Q504 936 495 944Q486 952 470 952Q446 952 424 940L413 971Q444 988 478 988Q508 988 526 972Q544 956 544 930Q544 902 526 880Q508 858 475 844L456 869Z"  horiz-adv-x="717" vert-adv-y="1000"  />

      
      <glyph glyph-name="uni1EB4" unicode="&#x1EB4;" d="M542 187L151 187L30 0L-50 0L410 700L483 700L663 0L589 0L542 187M528 247L433 625L189 247L528 247M467 752Q404 752 365 778.50Q326 805 323 851L371 851Q375 823 400.50 808Q426 793 469 793Q514 793 542 808Q570 823 579 851L629 851Q618 805 574 778.50Q530 752 467 752M553 878Q531 878 514.50 886Q498 894 479 909Q463 921 453 926.50Q443 932 431 932Q408 932 393 918.50Q378 905 373 882L330 882Q337 925 364.50 949.50Q392 974 431 974Q452 974 468.50 966Q485 958 504 943Q519 931 530 925.50Q541 920 553 920Q576 920 591.50 933Q607 946 612 969L654 969Q646 927 619.50 902.50Q593 878 553 878Z"  horiz-adv-x="717" vert-adv-y="1000"  />

      
      <glyph glyph-name="uni01CD" unicode="&#x01CD;" d="M542 187L151 187L30 0L-50 0L410 700L483 700L663 0L589 0L542 187M528 247L433 625L189 247L528 247M645 881L501 757L429 757L315 881L379 881L469 798L576 881L645 881Z"  horiz-adv-x="717" vert-adv-y="1000"  />

      
      <glyph glyph-name="unic2" unicode="&#xc2;" d="M542 187L151 187L30 0L-50 0L410 700L483 700L663 0L589 0L542 187M528 247L433 625L189 247L528 247M559 757L469 840L361 757L293 757L436 881L508 881L623 757L559 757Z"  horiz-adv-x="717" vert-adv-y="1000"  />

      
      <glyph glyph-name="uni1EA4" unicode="&#x1EA4;" d="M542 187L151 187L30 0L-50 0L410 700L483 700L663 0L589 0L542 187M528 247L433 625L189 247L528 247M556 757L468 816L363 757L293 757L436 851L506 851L623 757L556 757M680 950L769 950L612 841L546 841L680 950Z"  horiz-adv-x="717" vert-adv-y="1000"  />

      
      <glyph glyph-name="uni1EAC" unicode="&#x1EAC;" d="M542 187L151 187L30 0L-50 0L410 700L483 700L663 0L589 0L542 187M528 247L433 625L189 247L528 247M271-190Q255-190 244.50-179.50Q234-169 234-152Q234-132 248.50-118Q263-104 283-104Q299-104 309.50-114.50Q320-125 320-141Q320-162 306-176Q292-190 271-190M559 757L469 840L361 757L293 757L436 881L508 881L623 757L559 757Z"  horiz-adv-x="717" vert-adv-y="1000"  />

      
      <glyph glyph-name="uni1EA6" unicode="&#x1EA6;" d="M542 187L151 187L30 0L-50 0L410 700L483 700L663 0L589 0L542 187M528 247L433 625L189 247L528 247M556 757L468 816L363 757L293 757L436 851L506 851L623 757L556 757M485 950L572 950L671 841L608 841L485 950Z"  horiz-adv-x="717" vert-adv-y="1000"  />

      
      <glyph glyph-name="uni1EA8" unicode="&#x1EA8;" d="M542 187L151 187L30 0L-50 0L410 700L483 700L663 0L589 0L542 187M528 247L433 625L189 247L528 247M556 757L468 816L363 757L293 757L436 851L506 851L623 757L556 757M576 849Q624 869 624 903Q624 916 615 924Q606 932 590 932Q566 932 544 920L533 951Q564 968 598 968Q628 968 646 952Q664 936 664 910Q664 882 646 860Q628 838 595 824L576 849Z"  horiz-adv-x="717" vert-adv-y="1000"  />

      
      <glyph glyph-name="uni1EAA" unicode="&#x1EAA;" d="M542 187L151 187L30 0L-50 0L410 700L483 700L663 0L589 0L542 187M528 247L433 625L189 247L528 247M556 757L468 816L363 757L293 757L436 851L506 851L623 757L556 757M554 883Q532 883 515.50 891Q499 899 480 914Q464 926 454 931.50Q444 937 432 937Q409 937 394 923.50Q379 910 374 887L331 887Q338 930 365.50 954.50Q393 979 432 979Q453 979 469.50 971Q486 963 505 948Q520 936 531 930.50Q542 925 554 925Q577 925 592.50 938Q608 951 613 974L655 974Q647 932 620.50 907.50Q594 883 554 883Z"  horiz-adv-x="717" vert-adv-y="1000"  />

      
      <glyph glyph-name="uni0200" unicode="&#x0200;" d="M542 187L151 187L30 0L-50 0L410 700L483 700L663 0L589 0L542 187M528 247L433 625L189 247L528 247M257 881L335 881L407 757L346 757L257 881M420 881L497 881L569 757L509 757L420 881Z"  horiz-adv-x="717" vert-adv-y="1000"  />

      
      <glyph glyph-name="unic4" unicode="&#xc4;" d="M542 187L151 187L30 0L-50 0L410 700L483 700L663 0L589 0L542 187M528 247L433 625L189 247L528 247M379 780Q362 780 350 791Q338 802 338 818Q338 839 351.50 852.50Q365 866 383 866Q401 866 412.50 855Q424 844 424 826Q424 806 410.50 793Q397 780 379 780M557 780Q540 780 528.50 791Q517 802 517 818Q517 839 530 852.50Q543 866 562 866Q579 866 591 855Q603 844 603 826Q603 806 589.50 793Q576 780 557 780Z"  horiz-adv-x="717" vert-adv-y="1000"  />

      
      <glyph glyph-name="uni1EA0" unicode="&#x1EA0;" d="M542 187L151 187L30 0L-50 0L410 700L483 700L663 0L589 0L542 187M528 247L433 625L189 247L528 247M271-190Q255-190 244.50-179.50Q234-169 234-152Q234-132 248.50-118Q263-104 283-104Q299-104 309.50-114.50Q320-125 320-141Q320-162 306-176Q292-190 271-190Z"  horiz-adv-x="717" vert-adv-y="1000"  />

      
      <glyph glyph-name="unic0" unicode="&#xc0;" d="M542 187L151 187L30 0L-50 0L410 700L483 700L663 0L589 0L542 187M528 247L433 625L189 247L528 247M315 881L409 881L523 757L452 757L315 881Z"  horiz-adv-x="717" vert-adv-y="1000"  />

      
      <glyph glyph-name="uni1EA2" unicode="&#x1EA2;" d="M542 187L151 187L30 0L-50 0L410 700L483 700L663 0L589 0L542 187M528 247L433 625L189 247L528 247M456 781Q523 810 523 858Q523 877 509.50 889Q496 901 473 901Q443 901 412 882L396 918Q414 930 437 936.50Q460 943 483 943Q523 943 546.50 922.50Q570 902 570 867Q570 790 476 748L456 781Z"  horiz-adv-x="717" vert-adv-y="1000"  />

      
      <glyph glyph-name="uni0202" unicode="&#x0202;" d="M542 187L151 187L30 0L-50 0L410 700L483 700L663 0L589 0L542 187M528 247L433 625L189 247L528 247M305 757Q315 816 360.50 851Q406 886 471 886Q535 886 574.50 850.50Q614 815 610 757L561 757Q563 796 537 819.50Q511 843 467 843Q424 843 393 819.50Q362 796 356 757L305 757Z"  horiz-adv-x="717" vert-adv-y="1000"  />

      
      <glyph glyph-name="uni0100" unicode="&#x0100;" d="M542 187L151 187L30 0L-50 0L410 700L483 700L663 0L589 0L542 187M528 247L433 625L189 247L528 247M320 842L629 842L619 795L311 795L320 842Z"  horiz-adv-x="717" vert-adv-y="1000"  />

      
      <glyph glyph-name="uni0104" unicode="&#x0104;" d="M542 187L151 187L30 0L-50 0L410 700L483 700L663 0L589 0L542 187M528 247L433 625L189 247L528 247M559-220Q515-220 488.50-198Q462-176 462-138Q462-38 633 29L663 0Q516-58 516-130Q516-152 530-164Q544-176 569-176Q607-176 637-157L648-196Q608-220 559-220Z"  horiz-adv-x="717" vert-adv-y="1000"  />

      
      <glyph glyph-name="unic5" unicode="&#xc5;" d="M542 187L151 187L30 0L-50 0L410 700L483 700L663 0L589 0L542 187M528 247L433 625L189 247L528 247M481 770Q436 770 406.50 800Q377 830 377 872Q377 915 407 946Q437 977 481 977Q525 977 555 946Q585 915 585 872Q585 830 555 800Q525 770 481 770M481 805Q511 805 530 824Q549 843 549 872Q549 901 529.50 921.50Q510 942 481 942Q452 942 432.50 922Q413 902 413 872Q413 843 432 824Q451 805 481 805Z"  horiz-adv-x="717" vert-adv-y="1000"  />

      
      <glyph glyph-name="uni01FA" unicode="&#x01FA;" d="M542 187L151 187L30 0L-50 0L410 700L483 700L663 0L589 0L542 187M528 247L433 625L189 247L528 247M565 934Q585 906 585 872Q585 830 555 800Q525 770 481 770Q436 770 406.50 800Q377 830 377 872Q377 915 407 946Q437 977 481 977Q509 977 536 962L618 1043L657 1011L565 934M481 805Q511 805 530 824Q549 843 549 872Q549 901 529.50 921.50Q510 942 481 942Q452 942 432.50 922Q413 902 413 872Q413 843 432 824Q451 805 481 805Z"  horiz-adv-x="717" vert-adv-y="1000"  />

      
      <glyph glyph-name="unic3" unicode="&#xc3;" d="M542 187L151 187L30 0L-50 0L410 700L483 700L663 0L589 0L542 187M528 247L433 625L189 247L528 247M535 763Q513 763 496 773Q479 783 459 801Q442 816 430 823.50Q418 831 404 831Q382 831 367 813.50Q352 796 347 767L304 767Q312 819 339 848Q366 877 405 877Q427 877 443.50 867.50Q460 858 482 839Q498 824 509.50 816.50Q521 809 535 809Q557 809 572.50 826Q588 843 593 871L636 871Q628 820 601.50 791.50Q575 763 535 763Z"  horiz-adv-x="717" vert-adv-y="1000"  />

      
      <glyph glyph-name="unic6" unicode="&#xc6;" d="M626 636L576 387L940 387L926 324L564 324L512 64L933 64L920 0L427 0L464 187L182 187L32 0L-51 0L512 700L1046 700L1033 636L626 636M554 637L542 637L230 247L476 247L554 637Z"  horiz-adv-x="1033" vert-adv-y="1000"  />

      
      <glyph glyph-name="uni01FC" unicode="&#x01FC;" d="M626 636L576 387L940 387L926 324L564 324L512 64L933 64L920 0L427 0L464 187L182 187L32 0L-51 0L512 700L1046 700L1033 636L626 636M554 637L542 637L230 247L476 247L554 637M699 881L796 881L621 757L547 757L699 881Z"  horiz-adv-x="1033" vert-adv-y="1000"  />

      
      <glyph glyph-name="uni42" unicode="&#x42;" d="M574 361Q628 346 657 310Q686 274 686 217Q686 112 606.50 56Q527 0 387 0L62 0L202 700L501 700Q603 700 659.50 662Q716 624 716 551Q716 480 677 430.50Q638 381 574 361M263 639L212 385L435 385Q528 385 584 424.50Q640 464 640 538Q640 589 600.50 614Q561 639 487 639L263 639M393 61Q499 61 556 101Q613 141 613 216Q613 274 572.50 299Q532 324 450 324L200 324L148 61L393 61Z"  horiz-adv-x="754" vert-adv-y="1000"  />

      
      <glyph glyph-name="uni43" unicode="&#x43;" d="M391-6Q289-6 215 30.50Q141 67 102.50 132.50Q64 198 64 285Q64 401 116.50 497Q169 593 266 649.50Q363 706 490 706Q574 706 639 679.50Q704 653 739 604L687 558Q620 640 484 640Q381 640 302 592.50Q223 545 180 465Q137 385 137 289Q137 184 204.50 122Q272 60 397 60Q534 60 619 143L662 94Q616 46 545 20Q474-6 391-6Z"  horiz-adv-x="719" vert-adv-y="1000"  />

      
      <glyph glyph-name="uni0106" unicode="&#x0106;" d="M391-6Q289-6 215 30.50Q141 67 102.50 132.50Q64 198 64 285Q64 401 116.50 497Q169 593 266 649.50Q363 706 490 706Q574 706 639 679.50Q704 653 739 604L687 558Q620 640 484 640Q381 640 302 592.50Q223 545 180 465Q137 385 137 289Q137 184 204.50 122Q272 60 397 60Q534 60 619 143L662 94Q616 46 545 20Q474-6 391-6M593 881L690 881L515 757L441 757L593 881Z"  horiz-adv-x="719" vert-adv-y="1000"  />

      
      <glyph glyph-name="uni010C" unicode="&#x010C;" d="M391-6Q289-6 215 30.50Q141 67 102.50 132.50Q64 198 64 285Q64 401 116.50 497Q169 593 266 649.50Q363 706 490 706Q574 706 639 679.50Q704 653 739 604L687 558Q620 640 484 640Q381 640 302 592.50Q223 545 180 465Q137 385 137 289Q137 184 204.50 122Q272 60 397 60Q534 60 619 143L662 94Q616 46 545 20Q474-6 391-6M696 881L552 757L480 757L366 881L430 881L520 798L627 881L696 881Z"  horiz-adv-x="719" vert-adv-y="1000"  />

      
      <glyph glyph-name="unic7" unicode="&#xc7;" d="M391-6Q289-6 215 30.50Q141 67 102.50 132.50Q64 198 64 285Q64 401 116.50 497Q169 593 266 649.50Q363 706 490 706Q574 706 639 679.50Q704 653 739 604L687 558Q620 640 484 640Q381 640 302 592.50Q223 545 180 465Q137 385 137 289Q137 184 204.50 122Q272 60 397 60Q534 60 619 143L662 94Q616 46 545 20Q474-6 391-6M303-220Q251-220 219-197L241-159Q267-178 308-178Q340-178 358-163.50Q376-149 376-125Q376-106 362-95.50Q348-85 321-85L299-85L341 6L384 6L358-51Q392-55 410-74Q428-93 428-122Q428-166 393.50-193Q359-220 303-220Z"  horiz-adv-x="719" vert-adv-y="1000"  />

      
      <glyph glyph-name="uni1E08" unicode="&#x1E08;" d="M391-6Q289-6 215 30.50Q141 67 102.50 132.50Q64 198 64 285Q64 401 116.50 497Q169 593 266 649.50Q363 706 490 706Q574 706 639 679.50Q704 653 739 604L687 558Q620 640 484 640Q381 640 302 592.50Q223 545 180 465Q137 385 137 289Q137 184 204.50 122Q272 60 397 60Q534 60 619 143L662 94Q616 46 545 20Q474-6 391-6M303-220Q251-220 219-197L241-159Q267-178 308-178Q340-178 358-163.50Q376-149 376-125Q376-106 362-95.50Q348-85 321-85L299-85L341 6L384 6L358-51Q392-55 410-74Q428-93 428-122Q428-166 393.50-193Q359-220 303-220M593 881L690 881L515 757L441 757L593 881Z"  horiz-adv-x="719" vert-adv-y="1000"  />

      
      <glyph glyph-name="uni0108" unicode="&#x0108;" d="M391-6Q289-6 215 30.50Q141 67 102.50 132.50Q64 198 64 285Q64 401 116.50 497Q169 593 266 649.50Q363 706 490 706Q574 706 639 679.50Q704 653 739 604L687 558Q620 640 484 640Q381 640 302 592.50Q223 545 180 465Q137 385 137 289Q137 184 204.50 122Q272 60 397 60Q534 60 619 143L662 94Q616 46 545 20Q474-6 391-6M610 757L520 840L412 757L344 757L487 881L559 881L674 757L610 757Z"  horiz-adv-x="719" vert-adv-y="1000"  />

      
      <glyph glyph-name="uni010A" unicode="&#x010A;" d="M391-6Q289-6 215 30.50Q141 67 102.50 132.50Q64 198 64 285Q64 401 116.50 497Q169 593 266 649.50Q363 706 490 706Q574 706 639 679.50Q704 653 739 604L687 558Q620 640 484 640Q381 640 302 592.50Q223 545 180 465Q137 385 137 289Q137 184 204.50 122Q272 60 397 60Q534 60 619 143L662 94Q616 46 545 20Q474-6 391-6M520 780Q501 780 488 792.50Q475 805 475 823Q475 846 489.50 861Q504 876 526 876Q545 876 558 864Q571 852 571 833Q571 810 556 795Q541 780 520 780Z"  horiz-adv-x="719" vert-adv-y="1000"  />

      
      <glyph glyph-name="uni44" unicode="&#x44;" d="M202 700L468 700Q572 700 646.50 665Q721 630 759.50 565.50Q798 501 798 415Q798 293 744 199Q690 105 591.50 52.50Q493 0 363 0L62 0L202 700M365 64Q474 64 555.50 108.50Q637 153 680.50 232Q724 311 724 412Q724 516 657 576Q590 636 460 636L262 636L148 64L365 64Z"  horiz-adv-x="826" vert-adv-y="1000"  />

      
      <glyph glyph-name="uni01C4" unicode="&#x01C4;" d="M202 700L468 700Q572 700 646.50 665Q721 630 759.50 565.50Q798 501 798 415Q798 293 744 199Q690 105 591.50 52.50Q493 0 363 0L62 0L202 700M365 64Q474 64 555.50 108.50Q637 153 680.50 232Q724 311 724 412Q724 516 657 576Q590 636 460 636L262 636L148 64L365 64M1483 649L906 64L1377 64L1364 0L790 0L800 51L1376 636L925 636L938 700L1493 700L1483 649M1416 881L1272 757L1200 757L1086 881L1150 881L1240 798L1347 881L1416 881Z"  horiz-adv-x="1456" vert-adv-y="1000"  />

      
      <glyph glyph-name="unid0" unicode="&#xd0;" d="M207 700L473 700Q577 700 651.50 665Q726 630 764.50 565.50Q803 501 803 415Q803 293 749 199Q695 105 596.50 52.50Q498 0 368 0L67 0L207 700M370 64Q479 64 560.50 108.50Q642 153 685.50 232Q729 311 729 412Q729 516 662 576Q595 636 465 636L267 636L153 64L370 64M37 386L424 386L413 327L25 327L37 386Z"  horiz-adv-x="831" vert-adv-y="1000"  />

      
      <glyph glyph-name="uni010E" unicode="&#x010E;" d="M202 700L468 700Q572 700 646.50 665Q721 630 759.50 565.50Q798 501 798 415Q798 293 744 199Q690 105 591.50 52.50Q493 0 363 0L62 0L202 700M365 64Q474 64 555.50 108.50Q637 153 680.50 232Q724 311 724 412Q724 516 657 576Q590 636 460 636L262 636L148 64L365 64M668 880L524 756L452 756L338 880L402 880L492 797L599 880L668 880Z"  horiz-adv-x="826" vert-adv-y="1000"  />

      
      <glyph glyph-name="uni0110" unicode="&#x0110;" d="M207 700L473 700Q577 700 651.50 665Q726 630 764.50 565.50Q803 501 803 415Q803 293 749 199Q695 105 596.50 52.50Q498 0 368 0L67 0L207 700M370 64Q479 64 560.50 108.50Q642 153 685.50 232Q729 311 729 412Q729 516 662 576Q595 636 465 636L267 636L153 64L370 64M37 386L424 386L413 327L25 327L37 386Z"  horiz-adv-x="831" vert-adv-y="1000"  />

      
      <glyph glyph-name="uni1E0C" unicode="&#x1E0C;" d="M202 700L468 700Q572 700 646.50 665Q721 630 759.50 565.50Q798 501 798 415Q798 293 744 199Q690 105 591.50 52.50Q493 0 363 0L62 0L202 700M365 64Q474 64 555.50 108.50Q637 153 680.50 232Q724 311 724 412Q724 516 657 576Q590 636 460 636L262 636L148 64L365 64M299-190Q283-190 272.50-179.50Q262-169 262-152Q262-132 276.50-118Q291-104 311-104Q327-104 337.50-114.50Q348-125 348-141Q348-162 334-176Q320-190 299-190Z"  horiz-adv-x="826" vert-adv-y="1000"  />

      
      <glyph glyph-name="uni1E0E" unicode="&#x1E0E;" d="M202 700L468 700Q572 700 646.50 665Q721 630 759.50 565.50Q798 501 798 415Q798 293 744 199Q690 105 591.50 52.50Q493 0 363 0L62 0L202 700M365 64Q474 64 555.50 108.50Q637 153 680.50 232Q724 311 724 412Q724 516 657 576Q590 636 460 636L262 636L148 64L365 64M155-122L464-122L455-169L147-169L155-122Z"  horiz-adv-x="826" vert-adv-y="1000"  />

      
      <glyph glyph-name="uni01C5" unicode="&#x01C5;" d="M202 700L468 700Q572 700 646.50 665Q721 630 759.50 565.50Q798 501 798 415Q798 293 744 199Q690 105 591.50 52.50Q493 0 363 0L62 0L202 700M365 64Q474 64 555.50 108.50Q637 153 680.50 232Q724 311 724 412Q724 516 657 576Q590 636 460 636L262 636L148 64L365 64M1332 479L922 59L1255 59L1243 0L815 0L824 47L1234 466L915 466L927 526L1342 526L1332 479M1338 732L1194 608L1122 608L1008 732L1072 732L1162 649L1269 732L1338 732Z"  horiz-adv-x="1337" vert-adv-y="1000"  />

      
      <glyph glyph-name="uni45" unicode="&#x45;" d="M262 636L212 387L575 387L563 324L200 324L148 64L569 64L556 0L62 0L202 700L682 700L669 636L262 636Z"  horiz-adv-x="669" vert-adv-y="1000"  />

      
      <glyph glyph-name="unic9" unicode="&#xc9;" d="M262 636L212 387L575 387L563 324L200 324L148 64L569 64L556 0L62 0L202 700L682 700L669 636L262 636M538 881L635 881L460 757L386 757L538 881Z"  horiz-adv-x="669" vert-adv-y="1000"  />

      
      <glyph glyph-name="uni0114" unicode="&#x0114;" d="M262 636L212 387L575 387L563 324L200 324L148 64L569 64L556 0L62 0L202 700L682 700L669 636L262 636M464 752Q400 752 360.50 787.50Q321 823 325 881L374 881Q372 842 397.50 819Q423 796 468 796Q511 796 541.50 819Q572 842 578 881L630 881Q620 822 574.50 787Q529 752 464 752Z"  horiz-adv-x="669" vert-adv-y="1000"  />

      
      <glyph glyph-name="uni011A" unicode="&#x011A;" d="M262 636L212 387L575 387L563 324L200 324L148 64L569 64L556 0L62 0L202 700L682 700L669 636L262 636M641 881L497 757L425 757L311 881L375 881L465 798L572 881L641 881Z"  horiz-adv-x="669" vert-adv-y="1000"  />

      
      <glyph glyph-name="uni1E1C" unicode="&#x1E1C;" d="M262 636L212 387L575 387L563 324L200 324L148 64L569 64L556 0L62 0L202 700L682 700L669 636L262 636M257-220Q205-220 173-197L195-159Q221-178 262-178Q294-178 312-163.50Q330-149 330-125Q330-106 316-95.50Q302-85 275-85L253-85L295 6L338 6L312-51Q346-55 364-74Q382-93 382-122Q382-166 347.50-193Q313-220 257-220M464 752Q400 752 360.50 787.50Q321 823 325 881L374 881Q372 842 397.50 819Q423 796 468 796Q511 796 541.50 819Q572 842 578 881L630 881Q620 822 574.50 787Q529 752 464 752Z"  horiz-adv-x="669" vert-adv-y="1000"  />

      
      <glyph glyph-name="unica" unicode="&#xca;" d="M262 636L212 387L575 387L563 324L200 324L148 64L569 64L556 0L62 0L202 700L682 700L669 636L262 636M555 757L465 840L357 757L289 757L432 881L504 881L619 757L555 757Z"  horiz-adv-x="669" vert-adv-y="1000"  />

      
      <glyph glyph-name="uni1EBE" unicode="&#x1EBE;" d="M262 636L212 387L575 387L563 324L200 324L148 64L569 64L556 0L62 0L202 700L682 700L669 636L262 636M552 757L464 816L359 757L289 757L432 851L502 851L619 757L552 757M676 950L765 950L608 841L542 841L676 950Z"  horiz-adv-x="669" vert-adv-y="1000"  />

      
      <glyph glyph-name="uni1EC6" unicode="&#x1EC6;" d="M262 636L212 387L575 387L563 324L200 324L148 64L569 64L556 0L62 0L202 700L682 700L669 636L262 636M280-190Q264-190 253.50-179.50Q243-169 243-152Q243-132 257.50-118Q272-104 292-104Q308-104 318.50-114.50Q329-125 329-141Q329-162 315-176Q301-190 280-190M555 757L465 840L357 757L289 757L432 881L504 881L619 757L555 757Z"  horiz-adv-x="669" vert-adv-y="1000"  />

      
      <glyph glyph-name="uni1EC0" unicode="&#x1EC0;" d="M262 636L212 387L575 387L563 324L200 324L148 64L569 64L556 0L62 0L202 700L682 700L669 636L262 636M552 757L464 816L359 757L289 757L432 851L502 851L619 757L552 757M481 950L568 950L667 841L604 841L481 950Z"  horiz-adv-x="669" vert-adv-y="1000"  />

      
      <glyph glyph-name="uni1EC2" unicode="&#x1EC2;" d="M262 636L212 387L575 387L563 324L200 324L148 64L569 64L556 0L62 0L202 700L682 700L669 636L262 636M552 757L464 816L359 757L289 757L432 851L502 851L619 757L552 757M572 849Q620 869 620 903Q620 916 611 924Q602 932 586 932Q562 932 540 920L529 951Q560 968 594 968Q624 968 642 952Q660 936 660 910Q660 882 642 860Q624 838 591 824L572 849Z"  horiz-adv-x="669" vert-adv-y="1000"  />

      
      <glyph glyph-name="uni1EC4" unicode="&#x1EC4;" d="M262 636L212 387L575 387L563 324L200 324L148 64L569 64L556 0L62 0L202 700L682 700L669 636L262 636M552 757L464 816L359 757L289 757L432 851L502 851L619 757L552 757M550 883Q528 883 511.50 891Q495 899 476 914Q460 926 450 931.50Q440 937 428 937Q405 937 390 923.50Q375 910 370 887L327 887Q334 930 361.50 954.50Q389 979 428 979Q449 979 465.50 971Q482 963 501 948Q516 936 527 930.50Q538 925 550 925Q573 925 588.50 938Q604 951 609 974L651 974Q643 932 616.50 907.50Q590 883 550 883Z"  horiz-adv-x="669" vert-adv-y="1000"  />

      
      <glyph glyph-name="uni0204" unicode="&#x0204;" d="M262 636L212 387L575 387L563 324L200 324L148 64L569 64L556 0L62 0L202 700L682 700L669 636L262 636M253 881L331 881L403 757L342 757L253 881M416 881L493 881L565 757L505 757L416 881Z"  horiz-adv-x="669" vert-adv-y="1000"  />

      
      <glyph glyph-name="unicb" unicode="&#xcb;" d="M262 636L212 387L575 387L563 324L200 324L148 64L569 64L556 0L62 0L202 700L682 700L669 636L262 636M375 780Q358 780 346 791Q334 802 334 818Q334 839 347.50 852.50Q361 866 379 866Q397 866 408.50 855Q420 844 420 826Q420 806 406.50 793Q393 780 375 780M553 780Q536 780 524.50 791Q513 802 513 818Q513 839 526 852.50Q539 866 558 866Q575 866 587 855Q599 844 599 826Q599 806 585.50 793Q572 780 553 780Z"  horiz-adv-x="669" vert-adv-y="1000"  />

      
      <glyph glyph-name="uni0116" unicode="&#x0116;" d="M262 636L212 387L575 387L563 324L200 324L148 64L569 64L556 0L62 0L202 700L682 700L669 636L262 636M465 780Q446 780 433 792.50Q420 805 420 823Q420 846 434.50 861Q449 876 471 876Q490 876 503 864Q516 852 516 833Q516 810 501 795Q486 780 465 780Z"  horiz-adv-x="669" vert-adv-y="1000"  />

      
      <glyph glyph-name="uni1EB8" unicode="&#x1EB8;" d="M262 636L212 387L575 387L563 324L200 324L148 64L569 64L556 0L62 0L202 700L682 700L669 636L262 636M280-190Q264-190 253.50-179.50Q243-169 243-152Q243-132 257.50-118Q272-104 292-104Q308-104 318.50-114.50Q329-125 329-141Q329-162 315-176Q301-190 280-190Z"  horiz-adv-x="669" vert-adv-y="1000"  />

      
      <glyph glyph-name="unic8" unicode="&#xc8;" d="M262 636L212 387L575 387L563 324L200 324L148 64L569 64L556 0L62 0L202 700L682 700L669 636L262 636M311 881L405 881L519 757L448 757L311 881Z"  horiz-adv-x="669" vert-adv-y="1000"  />

      
      <glyph glyph-name="uni1EBA" unicode="&#x1EBA;" d="M262 636L212 387L575 387L563 324L200 324L148 64L569 64L556 0L62 0L202 700L682 700L669 636L262 636M452 781Q519 810 519 858Q519 877 505.50 889Q492 901 469 901Q439 901 408 882L392 918Q410 930 433 936.50Q456 943 479 943Q519 943 542.50 922.50Q566 902 566 867Q566 790 472 748L452 781Z"  horiz-adv-x="669" vert-adv-y="1000"  />

      
      <glyph glyph-name="uni0206" unicode="&#x0206;" d="M262 636L212 387L575 387L563 324L200 324L148 64L569 64L556 0L62 0L202 700L682 700L669 636L262 636M301 757Q311 816 356.50 851Q402 886 467 886Q531 886 570.50 850.50Q610 815 606 757L557 757Q559 796 533 819.50Q507 843 463 843Q420 843 389 819.50Q358 796 352 757L301 757Z"  horiz-adv-x="669" vert-adv-y="1000"  />

      
      <glyph glyph-name="uni0112" unicode="&#x0112;" d="M262 636L212 387L575 387L563 324L200 324L148 64L569 64L556 0L62 0L202 700L682 700L669 636L262 636M316 842L625 842L615 795L307 795L316 842Z"  horiz-adv-x="669" vert-adv-y="1000"  />

      
      <glyph glyph-name="uni1E16" unicode="&#x1E16;" d="M262 636L212 387L575 387L563 324L200 324L148 64L569 64L556 0L62 0L202 700L682 700L669 636L262 636M313 826L622 826L613 781L304 781L313 826M550 998L639 998L482 889L416 889L550 998Z"  horiz-adv-x="669" vert-adv-y="1000"  />

      
      <glyph glyph-name="uni1E14" unicode="&#x1E14;" d="M262 636L212 387L575 387L563 324L200 324L148 64L569 64L556 0L62 0L202 700L682 700L669 636L262 636M313 826L622 826L613 781L304 781L313 826M355 998L442 998L541 889L478 889L355 998Z"  horiz-adv-x="669" vert-adv-y="1000"  />

      
      <glyph glyph-name="uni0118" unicode="&#x0118;" d="M262 636L212 387L575 387L563 324L200 324L148 64L569 64L556 0L62 0L202 700L682 700L669 636L262 636M452-220Q408-220 381.50-198Q355-176 355-138Q355-38 526 29L556 0Q409-58 409-130Q409-152 423-164Q437-176 462-176Q500-176 530-157L541-196Q501-220 452-220Z"  horiz-adv-x="669" vert-adv-y="1000"  />

      
      <glyph glyph-name="uni1EBC" unicode="&#x1EBC;" d="M262 636L212 387L575 387L563 324L200 324L148 64L569 64L556 0L62 0L202 700L682 700L669 636L262 636M531 763Q509 763 492 773Q475 783 455 801Q438 816 426 823.50Q414 831 400 831Q378 831 363 813.50Q348 796 343 767L300 767Q308 819 335 848Q362 877 401 877Q423 877 439.50 867.50Q456 858 478 839Q494 824 505.50 816.50Q517 809 531 809Q553 809 568.50 826Q584 843 589 871L632 871Q624 820 597.50 791.50Q571 763 531 763Z"  horiz-adv-x="669" vert-adv-y="1000"  />

      
      <glyph glyph-name="uni01B7" unicode="&#x01B7;" d="M585 649L338 399Q428 392 476.50 346Q525 300 525 223Q525 156 489 104Q453 52 388 23Q323-6 238-6Q158-6 94.50 18.50Q31 43-3 85L38 141Q66 105 120 82.50Q174 60 242 60Q340 60 395.50 103Q451 146 451 219Q451 340 282 340L237 340L247 393L488 636L132 636L145 700L595 700L585 649Z"  horiz-adv-x="593" vert-adv-y="1000"  />

      
      <glyph glyph-name="uni01EE" unicode="&#x01EE;" d="M585 649L338 399Q428 392 476.50 346Q525 300 525 223Q525 156 489 104Q453 52 388 23Q323-6 238-6Q158-6 94.50 18.50Q31 43-3 85L38 141Q66 105 120 82.50Q174 60 242 60Q340 60 395.50 103Q451 146 451 219Q451 340 282 340L237 340L247 393L488 636L132 636L145 700L595 700L585 649M565 881L421 757L349 757L235 881L299 881L389 798L496 881L565 881Z"  horiz-adv-x="593" vert-adv-y="1000"  />

      
      <glyph glyph-name="uni46" unicode="&#x46;" d="M262 636L207 361L570 361L557 297L194 297L135 0L62 0L202 700L682 700L669 636L262 636Z"  horiz-adv-x="633" vert-adv-y="1000"  />

      
      <glyph glyph-name="uni47" unicode="&#x47;" d="M488 640Q384 640 304 593Q224 546 180.50 466Q137 386 137 289Q137 184 204.50 122Q272 60 399 60Q500 60 578 115L625 350L696 350L642 81Q593 40 527.50 17Q462-6 391-6Q290-6 216 30Q142 66 103 132Q64 198 64 285Q64 401 116.50 497Q169 593 266 649.50Q363 706 491 706Q579 706 645.50 679.50Q712 653 751 604L699 559Q663 601 611 620.50Q559 640 488 640Z"  horiz-adv-x="773" vert-adv-y="1000"  />

      
      <glyph glyph-name="uni011E" unicode="&#x011E;" d="M488 640Q384 640 304 593Q224 546 180.50 466Q137 386 137 289Q137 184 204.50 122Q272 60 399 60Q500 60 578 115L625 350L696 350L642 81Q593 40 527.50 17Q462-6 391-6Q290-6 216 30Q142 66 103 132Q64 198 64 285Q64 401 116.50 497Q169 593 266 649.50Q363 706 491 706Q579 706 645.50 679.50Q712 653 751 604L699 559Q663 601 611 620.50Q559 640 488 640M517 752Q453 752 413.50 787.50Q374 823 378 881L427 881Q425 842 450.50 819Q476 796 521 796Q564 796 594.50 819Q625 842 631 881L683 881Q673 822 627.50 787Q582 752 517 752Z"  horiz-adv-x="773" vert-adv-y="1000"  />

      
      <glyph glyph-name="uni01E6" unicode="&#x01E6;" d="M488 640Q384 640 304 593Q224 546 180.50 466Q137 386 137 289Q137 184 204.50 122Q272 60 399 60Q500 60 578 115L625 350L696 350L642 81Q593 40 527.50 17Q462-6 391-6Q290-6 216 30Q142 66 103 132Q64 198 64 285Q64 401 116.50 497Q169 593 266 649.50Q363 706 491 706Q579 706 645.50 679.50Q712 653 751 604L699 559Q663 601 611 620.50Q559 640 488 640M694 881L550 757L478 757L364 881L428 881L518 798L625 881L694 881Z"  horiz-adv-x="773" vert-adv-y="1000"  />

      
      <glyph glyph-name="uni011C" unicode="&#x011C;" d="M488 640Q384 640 304 593Q224 546 180.50 466Q137 386 137 289Q137 184 204.50 122Q272 60 399 60Q500 60 578 115L625 350L696 350L642 81Q593 40 527.50 17Q462-6 391-6Q290-6 216 30Q142 66 103 132Q64 198 64 285Q64 401 116.50 497Q169 593 266 649.50Q363 706 491 706Q579 706 645.50 679.50Q712 653 751 604L699 559Q663 601 611 620.50Q559 640 488 640M608 757L518 840L410 757L342 757L485 881L557 881L672 757L608 757Z"  horiz-adv-x="773" vert-adv-y="1000"  />

      
      <glyph glyph-name="uni0122" unicode="&#x0122;" d="M488 640Q384 640 304 593Q224 546 180.50 466Q137 386 137 289Q137 184 204.50 122Q272 60 399 60Q500 60 578 115L625 350L696 350L642 81Q593 40 527.50 17Q462-6 391-6Q290-6 216 30Q142 66 103 132Q64 198 64 285Q64 401 116.50 497Q169 593 266 649.50Q363 706 491 706Q579 706 645.50 679.50Q712 653 751 604L699 559Q663 601 611 620.50Q559 640 488 640M323-104Q343-104 354.50-114Q366-124 366-140Q366-151 362-160.50Q358-170 348-186L305-262L267-262L304-179Q293-175 286.50-166.50Q280-158 280-147Q280-128 291.50-116Q303-104 323-104Z"  horiz-adv-x="773" vert-adv-y="1000"  />

      
      <glyph glyph-name="uni0120" unicode="&#x0120;" d="M488 640Q384 640 304 593Q224 546 180.50 466Q137 386 137 289Q137 184 204.50 122Q272 60 399 60Q500 60 578 115L625 350L696 350L642 81Q593 40 527.50 17Q462-6 391-6Q290-6 216 30Q142 66 103 132Q64 198 64 285Q64 401 116.50 497Q169 593 266 649.50Q363 706 491 706Q579 706 645.50 679.50Q712 653 751 604L699 559Q663 601 611 620.50Q559 640 488 640M518 780Q499 780 486 792.50Q473 805 473 823Q473 846 487.50 861Q502 876 524 876Q543 876 556 864Q569 852 569 833Q569 810 554 795Q539 780 518 780Z"  horiz-adv-x="773" vert-adv-y="1000"  />

      
      <glyph glyph-name="uni1E20" unicode="&#x1E20;" d="M488 640Q384 640 304 593Q224 546 180.50 466Q137 386 137 289Q137 184 204.50 122Q272 60 399 60Q500 60 578 115L625 350L696 350L642 81Q593 40 527.50 17Q462-6 391-6Q290-6 216 30Q142 66 103 132Q64 198 64 285Q64 401 116.50 497Q169 593 266 649.50Q363 706 491 706Q579 706 645.50 679.50Q712 653 751 604L699 559Q663 601 611 620.50Q559 640 488 640M369 842L678 842L668 795L360 795L369 842Z"  horiz-adv-x="773" vert-adv-y="1000"  />

      
      <glyph glyph-name="uni01E4" unicode="&#x01E4;" d="M488 640Q384 640 304 593Q224 546 180.50 466Q137 386 137 289Q137 184 204.50 122Q272 60 399 60Q500 60 578 115L625 350L696 350L642 81Q593 40 527.50 17Q462-6 391-6Q290-6 216 30Q142 66 103 132Q64 198 64 285Q64 401 116.50 497Q169 593 266 649.50Q363 706 491 706Q579 706 645.50 679.50Q712 653 751 604L699 559Q663 601 611 620.50Q559 640 488 640M407.34 266L783.36 266L772.67 207L395.68 207L407.34 266Z"  horiz-adv-x="806" vert-adv-y="1000"  />

      
      <glyph glyph-name="uni48" unicode="&#x48;" d="M786 700L646 0L573 0L637 322L199 322L135 0L62 0L202 700L275 700L213 389L651 389L713 700L786 700Z"  horiz-adv-x="813" vert-adv-y="1000"  />

      
      <glyph glyph-name="uni0126" unicode="&#x0126;" d="M791 700L651 0L578 0L642 322L204 322L140 0L67 0L207 700L280 700L218 389L656 389L718 700L791 700M74 578L872 578L861 518L64 518L74 578Z"  horiz-adv-x="823" vert-adv-y="1000"  />

      
      <glyph glyph-name="uni1E2A" unicode="&#x1E2A;" d="M786 700L646 0L573 0L637 322L199 322L135 0L62 0L202 700L275 700L213 389L651 389L713 700L786 700M325-205Q260-205 220.50-171Q181-137 185-84L234-84Q232-121 257-142.50Q282-164 327-164Q371-164 401.50-143Q432-122 438-84L489-84Q480-141 434.50-173Q389-205 325-205Z"  horiz-adv-x="813" vert-adv-y="1000"  />

      
      <glyph glyph-name="uni021E" unicode="&#x021E;" d="M786 700L646 0L573 0L637 322L199 322L135 0L62 0L202 700L275 700L213 389L651 389L713 700L786 700M693 881L549 757L477 757L363 881L427 881L517 798L624 881L693 881Z"  horiz-adv-x="813" vert-adv-y="1000"  />

      
      <glyph glyph-name="uni0124" unicode="&#x0124;" d="M786 700L646 0L573 0L637 322L199 322L135 0L62 0L202 700L275 700L213 389L651 389L713 700L786 700M607 757L517 840L409 757L341 757L484 881L556 881L671 757L607 757Z"  horiz-adv-x="813" vert-adv-y="1000"  />

      
      <glyph glyph-name="uni1E24" unicode="&#x1E24;" d="M786 700L646 0L573 0L637 322L199 322L135 0L62 0L202 700L275 700L213 389L651 389L713 700L786 700M319-190Q303-190 292.50-179.50Q282-169 282-152Q282-132 296.50-118Q311-104 331-104Q347-104 357.50-114.50Q368-125 368-141Q368-162 354-176Q340-190 319-190Z"  horiz-adv-x="813" vert-adv-y="1000"  />

      
      <glyph glyph-name="uni49" unicode="&#x49;" d="M202 700L275 700L135 0L62 0L202 700Z"  horiz-adv-x="302" vert-adv-y="1000"  />

      
      <glyph glyph-name="uni0132" unicode="&#x0132;" d="M293-6Q221-6 161.50 12.50Q102 31 59 63L97 122Q137 92 188.50 76Q240 60 298 60Q400 60 459.50 117.50Q519 175 543 299L623 700L697 700L616 294Q585 141 505.50 67.50Q426-6 293-6M196 700L269 700L189 302L116 302L196 700Z"  horiz-adv-x="718" vert-adv-y="1000"  />

      
      <glyph glyph-name="unicd" unicode="&#xcd;" d="M202 700L275 700L135 0L62 0L202 700M334 881L431 881L256 757L182 757L334 881Z"  horiz-adv-x="302" vert-adv-y="1000"  />

      
      <glyph glyph-name="uni012C" unicode="&#x012C;" d="M202 700L275 700L135 0L62 0L202 700M260 752Q196 752 156.50 787.50Q117 823 121 881L170 881Q168 842 193.50 819Q219 796 264 796Q307 796 337.50 819Q368 842 374 881L426 881Q416 822 370.50 787Q325 752 260 752Z"  horiz-adv-x="302" vert-adv-y="1000"  />

      
      <glyph glyph-name="unice" unicode="&#xce;" d="M202 700L275 700L135 0L62 0L202 700M351 757L261 840L153 757L85 757L228 881L300 881L415 757L351 757Z"  horiz-adv-x="302" vert-adv-y="1000"  />

      
      <glyph glyph-name="uni0208" unicode="&#x0208;" d="M202 700L275 700L135 0L62 0L202 700M49 881L127 881L199 757L138 757L49 881M212 881L289 881L361 757L301 757L212 881Z"  horiz-adv-x="302" vert-adv-y="1000"  />

      
      <glyph glyph-name="unicf" unicode="&#xcf;" d="M202 700L275 700L135 0L62 0L202 700M171 780Q154 780 142 791Q130 802 130 818Q130 839 143.50 852.50Q157 866 175 866Q193 866 204.50 855Q216 844 216 826Q216 806 202.50 793Q189 780 171 780M349 780Q332 780 320.50 791Q309 802 309 818Q309 839 322 852.50Q335 866 354 866Q371 866 383 855Q395 844 395 826Q395 806 381.50 793Q368 780 349 780Z"  horiz-adv-x="302" vert-adv-y="1000"  />

      
      <glyph glyph-name="uni1E2E" unicode="&#x1E2E;" d="M202 700L275 700L135 0L62 0L202 700M172 780Q155 780 143.50 790.50Q132 801 132 817Q132 837 145 850Q158 863 176 863Q193 863 204.50 852Q216 841 216 825Q216 805 203 792.50Q190 780 172 780M348 780Q331 780 319.50 790.50Q308 801 308 817Q308 837 321 850Q334 863 352 863Q369 863 380.50 852Q392 841 392 825Q392 805 379 792.50Q366 780 348 780M346 998L435 998L278 889L212 889L346 998Z"  horiz-adv-x="302" vert-adv-y="1000"  />

      
      <glyph glyph-name="uni0130" unicode="&#x0130;" d="M202 700L275 700L135 0L62 0L202 700M261 780Q242 780 229 792.50Q216 805 216 823Q216 846 230.50 861Q245 876 267 876Q286 876 299 864Q312 852 312 833Q312 810 297 795Q282 780 261 780Z"  horiz-adv-x="302" vert-adv-y="1000"  />

      
      <glyph glyph-name="uni1ECA" unicode="&#x1ECA;" d="M202 700L275 700L135 0L62 0L202 700M63-190Q47-190 36.50-179.50Q26-169 26-152Q26-132 40.50-118Q55-104 75-104Q91-104 101.50-114.50Q112-125 112-141Q112-162 98-176Q84-190 63-190Z"  horiz-adv-x="302" vert-adv-y="1000"  />

      
      <glyph glyph-name="unicc" unicode="&#xcc;" d="M202 700L275 700L135 0L62 0L202 700M107 881L201 881L315 757L244 757L107 881Z"  horiz-adv-x="302" vert-adv-y="1000"  />

      
      <glyph glyph-name="uni1EC8" unicode="&#x1EC8;" d="M202 700L275 700L135 0L62 0L202 700M248 781Q315 810 315 858Q315 877 301.50 889Q288 901 265 901Q235 901 204 882L188 918Q206 930 229 936.50Q252 943 275 943Q315 943 338.50 922.50Q362 902 362 867Q362 790 268 748L248 781Z"  horiz-adv-x="302" vert-adv-y="1000"  />

      
      <glyph glyph-name="uni020A" unicode="&#x020A;" d="M202 700L275 700L135 0L62 0L202 700M97 757Q107 816 152.50 851Q198 886 263 886Q327 886 366.50 850.50Q406 815 402 757L353 757Q355 796 329 819.50Q303 843 259 843Q216 843 185 819.50Q154 796 148 757L97 757Z"  horiz-adv-x="302" vert-adv-y="1000"  />

      
      <glyph glyph-name="uni012A" unicode="&#x012A;" d="M202 700L275 700L135 0L62 0L202 700M141 842L393 842L383 795L133 795L141 842Z"  horiz-adv-x="302" vert-adv-y="1000"  />

      
      <glyph glyph-name="uni012E" unicode="&#x012E;" d="M202 700L275 700L135 0L62 0L202 700M77-220Q39-220 18.50-199.50Q-2-179-2-144Q-2-96 29-53Q60-10 112 26L135 0Q94-35 72.50-70Q51-105 51-137Q51-156 61-166.50Q71-177 89-177Q107-177 126-163L135-201Q125-210 109.50-215Q94-220 77-220Z"  horiz-adv-x="302" vert-adv-y="1000"  />

      
      <glyph glyph-name="uni0128" unicode="&#x0128;" d="M202 700L275 700L135 0L62 0L202 700M327 763Q305 763 288 773Q271 783 251 801Q234 816 222 823.50Q210 831 196 831Q174 831 159 813.50Q144 796 139 767L96 767Q104 819 131 848Q158 877 197 877Q219 877 235.50 867.50Q252 858 274 839Q290 824 301.50 816.50Q313 809 327 809Q349 809 364.50 826Q380 843 385 871L428 871Q420 820 393.50 791.50Q367 763 327 763Z"  horiz-adv-x="302" vert-adv-y="1000"  />

      
      <glyph glyph-name="uni4a" unicode="&#x4a;" d="M154-6Q87-6 36.50 21Q-14 48-37 95L15 142Q35 102 71 80Q107 58 156 58Q219 58 256.50 93Q294 128 310 209L395 636L140 636L153 700L481 700L382 209Q359 94 303.50 44Q248-6 154-6Z"  horiz-adv-x="501" vert-adv-y="1000"  />

      
      <glyph glyph-name="uni0134" unicode="&#x0134;" d="M154-6Q87-6 36.50 21Q-14 48-37 95L15 142Q35 102 71 80Q107 58 156 58Q219 58 256.50 93Q294 128 310 209L395 636L140 636L153 700L481 700L382 209Q359 94 303.50 44Q248-6 154-6M429 757L339 840L231 757L163 757L306 881L378 881L493 757L429 757Z"  horiz-adv-x="501" vert-adv-y="1000"  />

      
      <glyph glyph-name="uni4b" unicode="&#x4b;" d="M653 0L570 0L344 330L172 183L135 0L62 0L202 700L275 700L191 282L679 700L776 700L398 375L653 0Z"  horiz-adv-x="711" vert-adv-y="1000"  />

      
      <glyph glyph-name="uni01E8" unicode="&#x01E8;" d="M653 0L570 0L344 330L172 183L135 0L62 0L202 700L275 700L191 282L679 700L776 700L398 375L653 0M660 881L516 757L444 757L330 881L394 881L484 798L591 881L660 881Z"  horiz-adv-x="711" vert-adv-y="1000"  />

      
      <glyph glyph-name="uni0136" unicode="&#x0136;" d="M653 0L570 0L344 330L172 183L135 0L62 0L202 700L275 700L191 282L679 700L776 700L398 375L653 0M293-104Q313-104 324.50-114Q336-124 336-140Q336-151 332-160.50Q328-170 318-186L275-262L237-262L274-179Q263-175 256.50-166.50Q250-158 250-147Q250-128 261.50-116Q273-104 293-104Z"  horiz-adv-x="711" vert-adv-y="1000"  />

      
      <glyph glyph-name="uni4c" unicode="&#x4c;" d="M202 700L275 700L148 64L540 64L527 0L62 0L202 700Z"  horiz-adv-x="589" vert-adv-y="1000"  />

      
      <glyph glyph-name="uni01C7" unicode="&#x01C7;" d="M202 700L275 700L148 64L540 64L527 0L62 0L202 700M743-6Q676-6 625.50 21Q575 48 552 95L604 142Q624 102 660 80Q696 58 745 58Q808 58 845.50 93Q883 128 899 209L984 636L729 636L742 700L1070 700L971 209Q948 94 892.50 44Q837-6 743-6Z"  horiz-adv-x="1090" vert-adv-y="1000"  />

      
      <glyph glyph-name="uni0139" unicode="&#x0139;" d="M202 700L275 700L148 64L540 64L527 0L62 0L202 700M335 881L432 881L257 757L183 757L335 881Z"  horiz-adv-x="589" vert-adv-y="1000"  />

      
      <glyph glyph-name="uni013D" unicode="&#x013D;" d="M202 700L275 700L148 64L540 64L527 0L62 0L202 700M534 729L594 729L547 540L496 540L534 729Z"  horiz-adv-x="589" vert-adv-y="1000"  />

      
      <glyph glyph-name="uni013B" unicode="&#x013B;" d="M202 700L275 700L148 64L540 64L527 0L62 0L202 700M277-104Q297-104 308.50-114Q320-124 320-140Q320-151 316-160.50Q312-170 302-186L259-262L221-262L258-179Q247-175 240.50-166.50Q234-158 234-147Q234-128 245.50-116Q257-104 277-104Z"  horiz-adv-x="589" vert-adv-y="1000"  />

      
      <glyph glyph-name="uni013F" unicode="&#x013F;" d="M202 700L275 700L148 64L540 64L527 0L62 0L202 700M468 332Q448 332 434 345.50Q420 359 420 379Q420 402 435.50 417Q451 432 472 432Q492 432 505.50 418.50Q519 405 519 384Q519 362 503.50 347Q488 332 468 332Z"  horiz-adv-x="589" vert-adv-y="1000"  />

      
      <glyph glyph-name="uni1E36" unicode="&#x1E36;" d="M202 700L275 700L148 64L540 64L527 0L62 0L202 700M270-190Q254-190 243.50-179.50Q233-169 233-152Q233-132 247.50-118Q262-104 282-104Q298-104 308.50-114.50Q319-125 319-141Q319-162 305-176Q291-190 270-190Z"  horiz-adv-x="589" vert-adv-y="1000"  />

      
      <glyph glyph-name="uni01C8" unicode="&#x01C8;" d="M202 700L275 700L148 64L540 64L527 0L62 0L202 700M526-199Q492-199 463.50-190.50Q435-182 415-166L448-111Q478-138 527-138Q570-138 596-114Q622-90 632-38L745 526L816 526L703-40Q671-199 526-199M810 642Q789 642 775.50 656Q762 670 762 689Q762 712 777.50 727.50Q793 743 817 743Q838 743 852 729.50Q866 716 866 698Q866 674 850 658Q834 642 810 642Z"  horiz-adv-x="863" vert-adv-y="1000"  />

      
      <glyph glyph-name="uni1E3A" unicode="&#x1E3A;" d="M202 700L275 700L148 64L540 64L527 0L62 0L202 700M126-122L435-122L426-169L118-169L126-122Z"  horiz-adv-x="589" vert-adv-y="1000"  />

      
      <glyph glyph-name="uni0141" unicode="&#x0141;" d="M207 700L280 700L153 64L545 64L532 0L67 0L207 700M23 303L358 523L389 476L54 256L23 303Z"  horiz-adv-x="594" vert-adv-y="1000"  />

      
      <glyph glyph-name="uni4d" unicode="&#x4d;" d="M929 700L789 0L718 0L829 555L467 89L432 89L245 564L133 0L62 0L202 700L262 700L464 180L864 700L929 700Z"  horiz-adv-x="955" vert-adv-y="1000"  />

      
      <glyph glyph-name="uni1E42" unicode="&#x1E42;" d="M929 700L789 0L718 0L829 555L467 89L432 89L245 564L133 0L62 0L202 700L262 700L464 180L864 700L929 700M390-190Q374-190 363.50-179.50Q353-169 353-152Q353-132 367.50-118Q382-104 402-104Q418-104 428.50-114.50Q439-125 439-141Q439-162 425-176Q411-190 390-190Z"  horiz-adv-x="955" vert-adv-y="1000"  />

      
      <glyph glyph-name="uni4e" unicode="&#x4e;" d="M786 700L646 0L586 0L251 580L135 0L62 0L202 700L262 700L597 120L713 700L786 700Z"  horiz-adv-x="813" vert-adv-y="1000"  />

      
      <glyph glyph-name="uni01CA" unicode="&#x01CA;" d="M786 700L646 0L586 0L251 580L135 0L62 0L202 700L262 700L597 120L713 700L786 700M967-6Q900-6 849.50 21Q799 48 776 95L828 142Q848 102 884 80Q920 58 969 58Q1032 58 1069.50 93Q1107 128 1123 209L1208 636L953 636L966 700L1294 700L1195 209Q1172 94 1116.50 44Q1061-6 967-6Z"  horiz-adv-x="1314" vert-adv-y="1000"  />

      
      <glyph glyph-name="uni0143" unicode="&#x0143;" d="M786 700L646 0L586 0L251 580L135 0L62 0L202 700L262 700L597 120L713 700L786 700M590 881L687 881L512 757L438 757L590 881Z"  horiz-adv-x="813" vert-adv-y="1000"  />

      
      <glyph glyph-name="uni0147" unicode="&#x0147;" d="M786 700L646 0L586 0L251 580L135 0L62 0L202 700L262 700L597 120L713 700L786 700M693 881L549 757L477 757L363 881L427 881L517 798L624 881L693 881Z"  horiz-adv-x="813" vert-adv-y="1000"  />

      
      <glyph glyph-name="uni0145" unicode="&#x0145;" d="M786 700L646 0L586 0L251 580L135 0L62 0L202 700L262 700L597 120L713 700L786 700M326-104Q346-104 357.50-114Q369-124 369-140Q369-151 365-160.50Q361-170 351-186L308-262L270-262L307-179Q296-175 289.50-166.50Q283-158 283-147Q283-128 294.50-116Q306-104 326-104Z"  horiz-adv-x="813" vert-adv-y="1000"  />

      
      <glyph glyph-name="uni1E44" unicode="&#x1E44;" d="M786 700L646 0L586 0L251 580L135 0L62 0L202 700L262 700L597 120L713 700L786 700M517 780Q498 780 485 792.50Q472 805 472 823Q472 846 486.50 861Q501 876 523 876Q542 876 555 864Q568 852 568 833Q568 810 553 795Q538 780 517 780Z"  horiz-adv-x="813" vert-adv-y="1000"  />

      
      <glyph glyph-name="uni1E46" unicode="&#x1E46;" d="M786 700L646 0L586 0L251 580L135 0L62 0L202 700L262 700L597 120L713 700L786 700M319-190Q303-190 292.50-179.50Q282-169 282-152Q282-132 296.50-118Q311-104 331-104Q347-104 357.50-114.50Q368-125 368-141Q368-162 354-176Q340-190 319-190Z"  horiz-adv-x="813" vert-adv-y="1000"  />

      
      <glyph glyph-name="uni014A" unicode="&#x014A;" d="M786 700L651 24Q626-98 571-148.50Q516-199 421-199Q364-199 316.50-175Q269-151 246-112L290-63Q310-97 344.50-116Q379-135 424-135Q486-135 523-100.50Q560-66 576 14L576 16L251 581L135 0L62 0L202 700L262 700L597 120L713 700L786 700Z"  horiz-adv-x="813" vert-adv-y="1000"  />

      
      <glyph glyph-name="uni01CB" unicode="&#x01CB;" d="M786 700L646 0L586 0L251 580L135 0L62 0L202 700L262 700L597 120L713 700L786 700M750-199Q716-199 687.50-190.50Q659-182 639-166L672-111Q702-138 751-138Q794-138 820-114Q846-90 856-38L969 526L1040 526L927-40Q895-199 750-199M1034 642Q1013 642 999.50 656Q986 670 986 689Q986 712 1001.50 727.50Q1017 743 1041 743Q1062 743 1076 729.50Q1090 716 1090 698Q1090 674 1074 658Q1058 642 1034 642Z"  horiz-adv-x="1087" vert-adv-y="1000"  />

      
      <glyph glyph-name="uni1E48" unicode="&#x1E48;" d="M786 700L646 0L586 0L251 580L135 0L62 0L202 700L262 700L597 120L713 700L786 700M175-122L484-122L475-169L167-169L175-122Z"  horiz-adv-x="813" vert-adv-y="1000"  />

      
      <glyph glyph-name="unid1" unicode="&#xd1;" d="M786 700L646 0L586 0L251 580L135 0L62 0L202 700L262 700L597 120L713 700L786 700M583 763Q561 763 544 773Q527 783 507 801Q490 816 478 823.50Q466 831 452 831Q430 831 415 813.50Q400 796 395 767L352 767Q360 819 387 848Q414 877 453 877Q475 877 491.50 867.50Q508 858 530 839Q546 824 557.50 816.50Q569 809 583 809Q605 809 620.50 826Q636 843 641 871L684 871Q676 820 649.50 791.50Q623 763 583 763Z"  horiz-adv-x="813" vert-adv-y="1000"  />

      
      <glyph glyph-name="uni4f" unicode="&#x4f;" d="M388-6Q286-6 213 30.50Q140 67 102 132.50Q64 198 64 285Q64 400 116 496.50Q168 593 264 649.50Q360 706 486 706Q588 706 661 669.50Q734 633 772.50 567.50Q811 502 811 415Q811 300 758.50 203.50Q706 107 610 50.50Q514-6 388-6M395 60Q496 60 574 107.50Q652 155 694.50 235.50Q737 316 737 412Q737 516 670 578Q603 640 479 640Q378 640 300 592.50Q222 545 179.50 464.50Q137 384 137 289Q137 184 204 122Q271 60 395 60Z"  horiz-adv-x="839" vert-adv-y="1000"  />

      
      <glyph glyph-name="unid3" unicode="&#xd3;" d="M388-6Q286-6 213 30.50Q140 67 102 132.50Q64 198 64 285Q64 400 116 496.50Q168 593 264 649.50Q360 706 486 706Q588 706 661 669.50Q734 633 772.50 567.50Q811 502 811 415Q811 300 758.50 203.50Q706 107 610 50.50Q514-6 388-6M395 60Q496 60 574 107.50Q652 155 694.50 235.50Q737 316 737 412Q737 516 670 578Q603 640 479 640Q378 640 300 592.50Q222 545 179.50 464.50Q137 384 137 289Q137 184 204 122Q271 60 395 60M603 881L700 881L525 757L451 757L603 881Z"  horiz-adv-x="839" vert-adv-y="1000"  />

      
      <glyph glyph-name="uni014E" unicode="&#x014E;" d="M388-6Q286-6 213 30.50Q140 67 102 132.50Q64 198 64 285Q64 400 116 496.50Q168 593 264 649.50Q360 706 486 706Q588 706 661 669.50Q734 633 772.50 567.50Q811 502 811 415Q811 300 758.50 203.50Q706 107 610 50.50Q514-6 388-6M395 60Q496 60 574 107.50Q652 155 694.50 235.50Q737 316 737 412Q737 516 670 578Q603 640 479 640Q378 640 300 592.50Q222 545 179.50 464.50Q137 384 137 289Q137 184 204 122Q271 60 395 60M529 752Q465 752 425.50 787.50Q386 823 390 881L439 881Q437 842 462.50 819Q488 796 533 796Q576 796 606.50 819Q637 842 643 881L695 881Q685 822 639.50 787Q594 752 529 752Z"  horiz-adv-x="839" vert-adv-y="1000"  />

      
      <glyph glyph-name="unid4" unicode="&#xd4;" d="M388-6Q286-6 213 30.50Q140 67 102 132.50Q64 198 64 285Q64 400 116 496.50Q168 593 264 649.50Q360 706 486 706Q588 706 661 669.50Q734 633 772.50 567.50Q811 502 811 415Q811 300 758.50 203.50Q706 107 610 50.50Q514-6 388-6M395 60Q496 60 574 107.50Q652 155 694.50 235.50Q737 316 737 412Q737 516 670 578Q603 640 479 640Q378 640 300 592.50Q222 545 179.50 464.50Q137 384 137 289Q137 184 204 122Q271 60 395 60M620 757L530 840L422 757L354 757L497 881L569 881L684 757L620 757Z"  horiz-adv-x="839" vert-adv-y="1000"  />

      
      <glyph glyph-name="uni1ED0" unicode="&#x1ED0;" d="M388-6Q286-6 213 30.50Q140 67 102 132.50Q64 198 64 285Q64 400 116 496.50Q168 593 264 649.50Q360 706 486 706Q588 706 661 669.50Q734 633 772.50 567.50Q811 502 811 415Q811 300 758.50 203.50Q706 107 610 50.50Q514-6 388-6M395 60Q496 60 574 107.50Q652 155 694.50 235.50Q737 316 737 412Q737 516 670 578Q603 640 479 640Q378 640 300 592.50Q222 545 179.50 464.50Q137 384 137 289Q137 184 204 122Q271 60 395 60M617 757L529 816L424 757L354 757L497 851L567 851L684 757L617 757M741 950L830 950L673 841L607 841L741 950Z"  horiz-adv-x="839" vert-adv-y="1000"  />

      
      <glyph glyph-name="uni1ED8" unicode="&#x1ED8;" d="M388-6Q286-6 213 30.50Q140 67 102 132.50Q64 198 64 285Q64 400 116 496.50Q168 593 264 649.50Q360 706 486 706Q588 706 661 669.50Q734 633 772.50 567.50Q811 502 811 415Q811 300 758.50 203.50Q706 107 610 50.50Q514-6 388-6M395 60Q496 60 574 107.50Q652 155 694.50 235.50Q737 316 737 412Q737 516 670 578Q603 640 479 640Q378 640 300 592.50Q222 545 179.50 464.50Q137 384 137 289Q137 184 204 122Q271 60 395 60M332-190Q316-190 305.50-179.50Q295-169 295-152Q295-132 309.50-118Q324-104 344-104Q360-104 370.50-114.50Q381-125 381-141Q381-162 367-176Q353-190 332-190M620 757L530 840L422 757L354 757L497 881L569 881L684 757L620 757Z"  horiz-adv-x="839" vert-adv-y="1000"  />

      
      <glyph glyph-name="uni1ED2" unicode="&#x1ED2;" d="M388-6Q286-6 213 30.50Q140 67 102 132.50Q64 198 64 285Q64 400 116 496.50Q168 593 264 649.50Q360 706 486 706Q588 706 661 669.50Q734 633 772.50 567.50Q811 502 811 415Q811 300 758.50 203.50Q706 107 610 50.50Q514-6 388-6M395 60Q496 60 574 107.50Q652 155 694.50 235.50Q737 316 737 412Q737 516 670 578Q603 640 479 640Q378 640 300 592.50Q222 545 179.50 464.50Q137 384 137 289Q137 184 204 122Q271 60 395 60M617 757L529 816L424 757L354 757L497 851L567 851L684 757L617 757M546 950L633 950L732 841L669 841L546 950Z"  horiz-adv-x="839" vert-adv-y="1000"  />

      
      <glyph glyph-name="uni1ED4" unicode="&#x1ED4;" d="M388-6Q286-6 213 30.50Q140 67 102 132.50Q64 198 64 285Q64 400 116 496.50Q168 593 264 649.50Q360 706 486 706Q588 706 661 669.50Q734 633 772.50 567.50Q811 502 811 415Q811 300 758.50 203.50Q706 107 610 50.50Q514-6 388-6M395 60Q496 60 574 107.50Q652 155 694.50 235.50Q737 316 737 412Q737 516 670 578Q603 640 479 640Q378 640 300 592.50Q222 545 179.50 464.50Q137 384 137 289Q137 184 204 122Q271 60 395 60M617 757L529 816L424 757L354 757L497 851L567 851L684 757L617 757M637 849Q685 869 685 903Q685 916 676 924Q667 932 651 932Q627 932 605 920L594 951Q625 968 659 968Q689 968 707 952Q725 936 725 910Q725 882 707 860Q689 838 656 824L637 849Z"  horiz-adv-x="839" vert-adv-y="1000"  />

      
      <glyph glyph-name="uni1ED6" unicode="&#x1ED6;" d="M388-6Q286-6 213 30.50Q140 67 102 132.50Q64 198 64 285Q64 400 116 496.50Q168 593 264 649.50Q360 706 486 706Q588 706 661 669.50Q734 633 772.50 567.50Q811 502 811 415Q811 300 758.50 203.50Q706 107 610 50.50Q514-6 388-6M395 60Q496 60 574 107.50Q652 155 694.50 235.50Q737 316 737 412Q737 516 670 578Q603 640 479 640Q378 640 300 592.50Q222 545 179.50 464.50Q137 384 137 289Q137 184 204 122Q271 60 395 60M617 757L529 816L424 757L354 757L497 851L567 851L684 757L617 757M615 883Q593 883 576.50 891Q560 899 541 914Q525 926 515 931.50Q505 937 493 937Q470 937 455 923.50Q440 910 435 887L392 887Q399 930 426.50 954.50Q454 979 493 979Q514 979 530.50 971Q547 963 566 948Q581 936 592 930.50Q603 925 615 925Q638 925 653.50 938Q669 951 674 974L716 974Q708 932 681.50 907.50Q655 883 615 883Z"  horiz-adv-x="839" vert-adv-y="1000"  />

      
      <glyph glyph-name="uni020C" unicode="&#x020C;" d="M388-6Q286-6 213 30.50Q140 67 102 132.50Q64 198 64 285Q64 400 116 496.50Q168 593 264 649.50Q360 706 486 706Q588 706 661 669.50Q734 633 772.50 567.50Q811 502 811 415Q811 300 758.50 203.50Q706 107 610 50.50Q514-6 388-6M395 60Q496 60 574 107.50Q652 155 694.50 235.50Q737 316 737 412Q737 516 670 578Q603 640 479 640Q378 640 300 592.50Q222 545 179.50 464.50Q137 384 137 289Q137 184 204 122Q271 60 395 60M318 881L396 881L468 757L407 757L318 881M481 881L558 881L630 757L570 757L481 881Z"  horiz-adv-x="839" vert-adv-y="1000"  />

      
      <glyph glyph-name="unid6" unicode="&#xd6;" d="M388-6Q286-6 213 30.50Q140 67 102 132.50Q64 198 64 285Q64 400 116 496.50Q168 593 264 649.50Q360 706 486 706Q588 706 661 669.50Q734 633 772.50 567.50Q811 502 811 415Q811 300 758.50 203.50Q706 107 610 50.50Q514-6 388-6M395 60Q496 60 574 107.50Q652 155 694.50 235.50Q737 316 737 412Q737 516 670 578Q603 640 479 640Q378 640 300 592.50Q222 545 179.50 464.50Q137 384 137 289Q137 184 204 122Q271 60 395 60M440 780Q423 780 411 791Q399 802 399 818Q399 839 412.50 852.50Q426 866 444 866Q462 866 473.50 855Q485 844 485 826Q485 806 471.50 793Q458 780 440 780M618 780Q601 780 589.50 791Q578 802 578 818Q578 839 591 852.50Q604 866 623 866Q640 866 652 855Q664 844 664 826Q664 806 650.50 793Q637 780 618 780Z"  horiz-adv-x="839" vert-adv-y="1000"  />

      
      <glyph glyph-name="uni022A" unicode="&#x022A;" d="M388-6Q286-6 213 30.50Q140 67 102 132.50Q64 198 64 285Q64 400 116 496.50Q168 593 264 649.50Q360 706 486 706Q588 706 661 669.50Q734 633 772.50 567.50Q811 502 811 415Q811 300 758.50 203.50Q706 107 610 50.50Q514-6 388-6M395 60Q496 60 574 107.50Q652 155 694.50 235.50Q737 316 737 412Q737 516 670 578Q603 640 479 640Q378 640 300 592.50Q222 545 179.50 464.50Q137 384 137 289Q137 184 204 122Q271 60 395 60M441 780Q424 780 412.50 790.50Q401 801 401 817Q401 837 414 850Q427 863 445 863Q462 863 473.50 852Q485 841 485 825Q485 805 472 792.50Q459 780 441 780M617 780Q600 780 588.50 790.50Q577 801 577 817Q577 837 590 850Q603 863 621 863Q638 863 649.50 852Q661 841 661 825Q661 805 648 792.50Q635 780 617 780M404 958L713 958L704 913L395 913L404 958Z"  horiz-adv-x="839" vert-adv-y="1000"  />

      
      <glyph glyph-name="uni0230" unicode="&#x0230;" d="M388-6Q286-6 213 30.50Q140 67 102 132.50Q64 198 64 285Q64 400 116 496.50Q168 593 264 649.50Q360 706 486 706Q588 706 661 669.50Q734 633 772.50 567.50Q811 502 811 415Q811 300 758.50 203.50Q706 107 610 50.50Q514-6 388-6M395 60Q496 60 574 107.50Q652 155 694.50 235.50Q737 316 737 412Q737 516 670 578Q603 640 479 640Q378 640 300 592.50Q222 545 179.50 464.50Q137 384 137 289Q137 184 204 122Q271 60 395 60M529 780Q512 780 500.50 791Q489 802 489 820Q489 839 502 852.50Q515 866 534 866Q550 866 562.50 854.50Q575 843 575 825Q575 806 561.50 793Q548 780 529 780M405 961L714 961L705 916L396 916L405 961Z"  horiz-adv-x="839" vert-adv-y="1000"  />

      
      <glyph glyph-name="uni1ECC" unicode="&#x1ECC;" d="M388-6Q286-6 213 30.50Q140 67 102 132.50Q64 198 64 285Q64 400 116 496.50Q168 593 264 649.50Q360 706 486 706Q588 706 661 669.50Q734 633 772.50 567.50Q811 502 811 415Q811 300 758.50 203.50Q706 107 610 50.50Q514-6 388-6M395 60Q496 60 574 107.50Q652 155 694.50 235.50Q737 316 737 412Q737 516 670 578Q603 640 479 640Q378 640 300 592.50Q222 545 179.50 464.50Q137 384 137 289Q137 184 204 122Q271 60 395 60M332-190Q316-190 305.50-179.50Q295-169 295-152Q295-132 309.50-118Q324-104 344-104Q360-104 370.50-114.50Q381-125 381-141Q381-162 367-176Q353-190 332-190Z"  horiz-adv-x="839" vert-adv-y="1000"  />

      
      <glyph glyph-name="unid2" unicode="&#xd2;" d="M388-6Q286-6 213 30.50Q140 67 102 132.50Q64 198 64 285Q64 400 116 496.50Q168 593 264 649.50Q360 706 486 706Q588 706 661 669.50Q734 633 772.50 567.50Q811 502 811 415Q811 300 758.50 203.50Q706 107 610 50.50Q514-6 388-6M395 60Q496 60 574 107.50Q652 155 694.50 235.50Q737 316 737 412Q737 516 670 578Q603 640 479 640Q378 640 300 592.50Q222 545 179.50 464.50Q137 384 137 289Q137 184 204 122Q271 60 395 60M376 881L470 881L584 757L513 757L376 881Z"  horiz-adv-x="839" vert-adv-y="1000"  />

      
      <glyph glyph-name="uni1ECE" unicode="&#x1ECE;" d="M388-6Q286-6 213 30.50Q140 67 102 132.50Q64 198 64 285Q64 400 116 496.50Q168 593 264 649.50Q360 706 486 706Q588 706 661 669.50Q734 633 772.50 567.50Q811 502 811 415Q811 300 758.50 203.50Q706 107 610 50.50Q514-6 388-6M395 60Q496 60 574 107.50Q652 155 694.50 235.50Q737 316 737 412Q737 516 670 578Q603 640 479 640Q378 640 300 592.50Q222 545 179.50 464.50Q137 384 137 289Q137 184 204 122Q271 60 395 60M517 781Q584 810 584 858Q584 877 570.50 889Q557 901 534 901Q504 901 473 882L457 918Q475 930 498 936.50Q521 943 544 943Q584 943 607.50 922.50Q631 902 631 867Q631 790 537 748L517 781Z"  horiz-adv-x="839" vert-adv-y="1000"  />

      
      <glyph glyph-name="uni01A0" unicode="&#x01A0;" d="M869 765Q869 707 830.50 673Q792 639 727 639Q711 639 704 640Q756 602 783.50 544.50Q811 487 811 415Q811 300 758.50 203.50Q706 107 610 50.50Q514-6 388-6Q286-6 213 30.50Q140 67 102 132.50Q64 198 64 285Q64 400 116 496.50Q168 593 264 649.50Q360 706 486 706Q546 706 613 697Q623 696 654 693Q685 690 714 690Q763 690 789.50 710.50Q816 731 816 767Q816 803 796 831L843 850Q869 810 869 765M737 412Q737 516 670 578Q603 640 479 640Q378 640 300 592.50Q222 545 179.50 464.50Q137 384 137 289Q137 184 204 122Q271 60 395 60Q496 60 574 107.50Q652 155 694.50 235.50Q737 316 737 412Z"  horiz-adv-x="839" vert-adv-y="1000"  />

      
      <glyph glyph-name="uni1EDA" unicode="&#x1EDA;" d="M869 765Q869 707 830.50 673Q792 639 727 639Q711 639 704 640Q756 602 783.50 544.50Q811 487 811 415Q811 300 758.50 203.50Q706 107 610 50.50Q514-6 388-6Q286-6 213 30.50Q140 67 102 132.50Q64 198 64 285Q64 400 116 496.50Q168 593 264 649.50Q360 706 486 706Q546 706 613 697Q623 696 654 693Q685 690 714 690Q763 690 789.50 710.50Q816 731 816 767Q816 803 796 831L843 850Q869 810 869 765M737 412Q737 516 670 578Q603 640 479 640Q378 640 300 592.50Q222 545 179.50 464.50Q137 384 137 289Q137 184 204 122Q271 60 395 60Q496 60 574 107.50Q652 155 694.50 235.50Q737 316 737 412M603 881L700 881L525 757L451 757L603 881Z"  horiz-adv-x="839" vert-adv-y="1000"  />

      
      <glyph glyph-name="uni1EE2" unicode="&#x1EE2;" d="M869 765Q869 707 830.50 673Q792 639 727 639Q711 639 704 640Q756 602 783.50 544.50Q811 487 811 415Q811 300 758.50 203.50Q706 107 610 50.50Q514-6 388-6Q286-6 213 30.50Q140 67 102 132.50Q64 198 64 285Q64 400 116 496.50Q168 593 264 649.50Q360 706 486 706Q546 706 613 697Q623 696 654 693Q685 690 714 690Q763 690 789.50 710.50Q816 731 816 767Q816 803 796 831L843 850Q869 810 869 765M737 412Q737 516 670 578Q603 640 479 640Q378 640 300 592.50Q222 545 179.50 464.50Q137 384 137 289Q137 184 204 122Q271 60 395 60Q496 60 574 107.50Q652 155 694.50 235.50Q737 316 737 412M332-190Q316-190 305.50-179.50Q295-169 295-152Q295-132 309.50-118Q324-104 344-104Q360-104 370.50-114.50Q381-125 381-141Q381-162 367-176Q353-190 332-190Z"  horiz-adv-x="839" vert-adv-y="1000"  />

      
      <glyph glyph-name="uni1EDC" unicode="&#x1EDC;" d="M869 765Q869 707 830.50 673Q792 639 727 639Q711 639 704 640Q756 602 783.50 544.50Q811 487 811 415Q811 300 758.50 203.50Q706 107 610 50.50Q514-6 388-6Q286-6 213 30.50Q140 67 102 132.50Q64 198 64 285Q64 400 116 496.50Q168 593 264 649.50Q360 706 486 706Q546 706 613 697Q623 696 654 693Q685 690 714 690Q763 690 789.50 710.50Q816 731 816 767Q816 803 796 831L843 850Q869 810 869 765M737 412Q737 516 670 578Q603 640 479 640Q378 640 300 592.50Q222 545 179.50 464.50Q137 384 137 289Q137 184 204 122Q271 60 395 60Q496 60 574 107.50Q652 155 694.50 235.50Q737 316 737 412M376 881L470 881L584 757L513 757L376 881Z"  horiz-adv-x="839" vert-adv-y="1000"  />

      
      <glyph glyph-name="uni1EDE" unicode="&#x1EDE;" d="M869 765Q869 707 830.50 673Q792 639 727 639Q711 639 704 640Q756 602 783.50 544.50Q811 487 811 415Q811 300 758.50 203.50Q706 107 610 50.50Q514-6 388-6Q286-6 213 30.50Q140 67 102 132.50Q64 198 64 285Q64 400 116 496.50Q168 593 264 649.50Q360 706 486 706Q546 706 613 697Q623 696 654 693Q685 690 714 690Q763 690 789.50 710.50Q816 731 816 767Q816 803 796 831L843 850Q869 810 869 765M737 412Q737 516 670 578Q603 640 479 640Q378 640 300 592.50Q222 545 179.50 464.50Q137 384 137 289Q137 184 204 122Q271 60 395 60Q496 60 574 107.50Q652 155 694.50 235.50Q737 316 737 412M517 781Q584 810 584 858Q584 877 570.50 889Q557 901 534 901Q504 901 473 882L457 918Q475 930 498 936.50Q521 943 544 943Q584 943 607.50 922.50Q631 902 631 867Q631 790 537 748L517 781Z"  horiz-adv-x="839" vert-adv-y="1000"  />

      
      <glyph glyph-name="uni1EE0" unicode="&#x1EE0;" d="M869 765Q869 707 830.50 673Q792 639 727 639Q711 639 704 640Q756 602 783.50 544.50Q811 487 811 415Q811 300 758.50 203.50Q706 107 610 50.50Q514-6 388-6Q286-6 213 30.50Q140 67 102 132.50Q64 198 64 285Q64 400 116 496.50Q168 593 264 649.50Q360 706 486 706Q546 706 613 697Q623 696 654 693Q685 690 714 690Q763 690 789.50 710.50Q816 731 816 767Q816 803 796 831L843 850Q869 810 869 765M737 412Q737 516 670 578Q603 640 479 640Q378 640 300 592.50Q222 545 179.50 464.50Q137 384 137 289Q137 184 204 122Q271 60 395 60Q496 60 574 107.50Q652 155 694.50 235.50Q737 316 737 412M596 763Q574 763 557 773Q540 783 520 801Q503 816 491 823.50Q479 831 465 831Q443 831 428 813.50Q413 796 408 767L365 767Q373 819 400 848Q427 877 466 877Q488 877 504.50 867.50Q521 858 543 839Q559 824 570.50 816.50Q582 809 596 809Q618 809 633.50 826Q649 843 654 871L697 871Q689 820 662.50 791.50Q636 763 596 763Z"  horiz-adv-x="839" vert-adv-y="1000"  />

      
      <glyph glyph-name="uni0150" unicode="&#x0150;" d="M388-6Q286-6 213 30.50Q140 67 102 132.50Q64 198 64 285Q64 400 116 496.50Q168 593 264 649.50Q360 706 486 706Q588 706 661 669.50Q734 633 772.50 567.50Q811 502 811 415Q811 300 758.50 203.50Q706 107 610 50.50Q514-6 388-6M395 60Q496 60 574 107.50Q652 155 694.50 235.50Q737 316 737 412Q737 516 670 578Q603 640 479 640Q378 640 300 592.50Q222 545 179.50 464.50Q137 384 137 289Q137 184 204 122Q271 60 395 60M514 881L596 881L470 757L404 757L514 881M677 881L759 881L632 757L568 757L677 881Z"  horiz-adv-x="839" vert-adv-y="1000"  />

      
      <glyph glyph-name="uni020E" unicode="&#x020E;" d="M388-6Q286-6 213 30.50Q140 67 102 132.50Q64 198 64 285Q64 400 116 496.50Q168 593 264 649.50Q360 706 486 706Q588 706 661 669.50Q734 633 772.50 567.50Q811 502 811 415Q811 300 758.50 203.50Q706 107 610 50.50Q514-6 388-6M395 60Q496 60 574 107.50Q652 155 694.50 235.50Q737 316 737 412Q737 516 670 578Q603 640 479 640Q378 640 300 592.50Q222 545 179.50 464.50Q137 384 137 289Q137 184 204 122Q271 60 395 60M366 757Q376 816 421.50 851Q467 886 532 886Q596 886 635.50 850.50Q675 815 671 757L622 757Q624 796 598 819.50Q572 843 528 843Q485 843 454 819.50Q423 796 417 757L366 757Z"  horiz-adv-x="839" vert-adv-y="1000"  />

      
      <glyph glyph-name="uni014C" unicode="&#x014C;" d="M388-6Q286-6 213 30.50Q140 67 102 132.50Q64 198 64 285Q64 400 116 496.50Q168 593 264 649.50Q360 706 486 706Q588 706 661 669.50Q734 633 772.50 567.50Q811 502 811 415Q811 300 758.50 203.50Q706 107 610 50.50Q514-6 388-6M395 60Q496 60 574 107.50Q652 155 694.50 235.50Q737 316 737 412Q737 516 670 578Q603 640 479 640Q378 640 300 592.50Q222 545 179.50 464.50Q137 384 137 289Q137 184 204 122Q271 60 395 60M381 842L690 842L680 795L372 795L381 842Z"  horiz-adv-x="839" vert-adv-y="1000"  />

      
      <glyph glyph-name="uni1E52" unicode="&#x1E52;" d="M388-6Q286-6 213 30.50Q140 67 102 132.50Q64 198 64 285Q64 400 116 496.50Q168 593 264 649.50Q360 706 486 706Q588 706 661 669.50Q734 633 772.50 567.50Q811 502 811 415Q811 300 758.50 203.50Q706 107 610 50.50Q514-6 388-6M395 60Q496 60 574 107.50Q652 155 694.50 235.50Q737 316 737 412Q737 516 670 578Q603 640 479 640Q378 640 300 592.50Q222 545 179.50 464.50Q137 384 137 289Q137 184 204 122Q271 60 395 60M378 826L687 826L678 781L369 781L378 826M615 998L704 998L547 889L481 889L615 998Z"  horiz-adv-x="839" vert-adv-y="1000"  />

      
      <glyph glyph-name="uni1E50" unicode="&#x1E50;" d="M388-6Q286-6 213 30.50Q140 67 102 132.50Q64 198 64 285Q64 400 116 496.50Q168 593 264 649.50Q360 706 486 706Q588 706 661 669.50Q734 633 772.50 567.50Q811 502 811 415Q811 300 758.50 203.50Q706 107 610 50.50Q514-6 388-6M395 60Q496 60 574 107.50Q652 155 694.50 235.50Q737 316 737 412Q737 516 670 578Q603 640 479 640Q378 640 300 592.50Q222 545 179.50 464.50Q137 384 137 289Q137 184 204 122Q271 60 395 60M378 826L687 826L678 781L369 781L378 826M420 998L507 998L606 889L543 889L420 998Z"  horiz-adv-x="839" vert-adv-y="1000"  />

      
      <glyph glyph-name="uni01EA" unicode="&#x01EA;" d="M486 706Q588 706 661 669.50Q734 633 772.50 567.50Q811 502 811 415Q811 314 770.50 227Q730 140 655.50 81.50Q581 23 483 3Q383-17 335.50-53.50Q288-90 288-130Q288-152 302.50-164Q317-176 341-176Q379-176 409-157L420-196Q380-220 331-220Q288-220 261.50-198Q235-176 235-138Q235-99 260-64.50Q285-30 337-3Q208 10 136 87.50Q64 165 64 285Q64 400 116 496.50Q168 593 264 649.50Q360 706 486 706M395 60Q496 60 574 107.50Q652 155 694.50 235.50Q737 316 737 412Q737 516 670 578Q603 640 479 640Q378 640 300 592.50Q222 545 179.50 464.50Q137 384 137 289Q137 184 204 122Q271 60 395 60Z"  horiz-adv-x="839" vert-adv-y="1000"  />

      
      <glyph glyph-name="unid8" unicode="&#xd8;" d="M388-6Q286-6 213 30.50Q140 67 102 132.50Q64 198 64 285Q64 400 116 496.50Q168 593 264 649.50Q360 706 486 706Q588 706 661 669.50Q734 633 772.50 567.50Q811 502 811 415Q811 300 758.50 203.50Q706 107 610 50.50Q514-6 388-6M395 60Q496 60 574 107.50Q652 155 694.50 235.50Q737 316 737 412Q737 516 670 578Q603 640 479 640Q378 640 300 592.50Q222 545 179.50 464.50Q137 384 137 289Q137 184 204 122Q271 60 395 60M792 770L854 770L81-70L18-70L792 770Z"  horiz-adv-x="839" vert-adv-y="1000"  />

      
      <glyph glyph-name="uni01FE" unicode="&#x01FE;" d="M388-6Q286-6 213 30.50Q140 67 102 132.50Q64 198 64 285Q64 400 116 496.50Q168 593 264 649.50Q360 706 486 706Q588 706 661 669.50Q734 633 772.50 567.50Q811 502 811 415Q811 300 758.50 203.50Q706 107 610 50.50Q514-6 388-6M395 60Q496 60 574 107.50Q652 155 694.50 235.50Q737 316 737 412Q737 516 670 578Q603 640 479 640Q378 640 300 592.50Q222 545 179.50 464.50Q137 384 137 289Q137 184 204 122Q271 60 395 60M792 770L854 770L81-70L18-70L792 770M603 881L700 881L525 757L451 757L603 881Z"  horiz-adv-x="839" vert-adv-y="1000"  />

      
      <glyph glyph-name="unid5" unicode="&#xd5;" d="M388-6Q286-6 213 30.50Q140 67 102 132.50Q64 198 64 285Q64 400 116 496.50Q168 593 264 649.50Q360 706 486 706Q588 706 661 669.50Q734 633 772.50 567.50Q811 502 811 415Q811 300 758.50 203.50Q706 107 610 50.50Q514-6 388-6M395 60Q496 60 574 107.50Q652 155 694.50 235.50Q737 316 737 412Q737 516 670 578Q603 640 479 640Q378 640 300 592.50Q222 545 179.50 464.50Q137 384 137 289Q137 184 204 122Q271 60 395 60M596 763Q574 763 557 773Q540 783 520 801Q503 816 491 823.50Q479 831 465 831Q443 831 428 813.50Q413 796 408 767L365 767Q373 819 400 848Q427 877 466 877Q488 877 504.50 867.50Q521 858 543 839Q559 824 570.50 816.50Q582 809 596 809Q618 809 633.50 826Q649 843 654 871L697 871Q689 820 662.50 791.50Q636 763 596 763Z"  horiz-adv-x="839" vert-adv-y="1000"  />

      
      <glyph glyph-name="uni1E4C" unicode="&#x1E4C;" d="M388-6Q286-6 213 30.50Q140 67 102 132.50Q64 198 64 285Q64 400 116 496.50Q168 593 264 649.50Q360 706 486 706Q588 706 661 669.50Q734 633 772.50 567.50Q811 502 811 415Q811 300 758.50 203.50Q706 107 610 50.50Q514-6 388-6M395 60Q496 60 574 107.50Q652 155 694.50 235.50Q737 316 737 412Q737 516 670 578Q603 640 479 640Q378 640 300 592.50Q222 545 179.50 464.50Q137 384 137 289Q137 184 204 122Q271 60 395 60M591 765Q569 765 552.50 773Q536 781 517 796Q501 808 491 813.50Q481 819 469 819Q446 819 431 805.50Q416 792 411 769L368 769Q375 812 402.50 836.50Q430 861 469 861Q490 861 506.50 853Q523 845 542 830Q557 818 568 812.50Q579 807 591 807Q614 807 629.50 820Q645 833 650 856L692 856Q684 814 657.50 789.50Q631 765 591 765M615 998L704 998L547 889L481 889L615 998Z"  horiz-adv-x="839" vert-adv-y="1000"  />

      
      <glyph glyph-name="uni1E4E" unicode="&#x1E4E;" d="M388-6Q286-6 213 30.50Q140 67 102 132.50Q64 198 64 285Q64 400 116 496.50Q168 593 264 649.50Q360 706 486 706Q588 706 661 669.50Q734 633 772.50 567.50Q811 502 811 415Q811 300 758.50 203.50Q706 107 610 50.50Q514-6 388-6M395 60Q496 60 574 107.50Q652 155 694.50 235.50Q737 316 737 412Q737 516 670 578Q603 640 479 640Q378 640 300 592.50Q222 545 179.50 464.50Q137 384 137 289Q137 184 204 122Q271 60 395 60M591 765Q569 765 552.50 773Q536 781 517 796Q501 808 491 813.50Q481 819 469 819Q446 819 431 805.50Q416 792 411 769L368 769Q375 812 402.50 836.50Q430 861 469 861Q490 861 506.50 853Q523 845 542 830Q557 818 568 812.50Q579 807 591 807Q614 807 629.50 820Q645 833 650 856L692 856Q684 814 657.50 789.50Q631 765 591 765M467 912Q450 912 438.50 922.50Q427 933 427 949Q427 969 440 982Q453 995 471 995Q488 995 499.50 984Q511 973 511 957Q511 937 498 924.50Q485 912 467 912M643 912Q626 912 614.50 922.50Q603 933 603 949Q603 969 616 982Q629 995 647 995Q664 995 675.50 984Q687 973 687 957Q687 937 674 924.50Q661 912 643 912Z"  horiz-adv-x="839" vert-adv-y="1000"  />

      
      <glyph glyph-name="uni022C" unicode="&#x022C;" d="M388-6Q286-6 213 30.50Q140 67 102 132.50Q64 198 64 285Q64 400 116 496.50Q168 593 264 649.50Q360 706 486 706Q588 706 661 669.50Q734 633 772.50 567.50Q811 502 811 415Q811 300 758.50 203.50Q706 107 610 50.50Q514-6 388-6M395 60Q496 60 574 107.50Q652 155 694.50 235.50Q737 316 737 412Q737 516 670 578Q603 640 479 640Q378 640 300 592.50Q222 545 179.50 464.50Q137 384 137 289Q137 184 204 122Q271 60 395 60M591 765Q569 765 552.50 773Q536 781 517 796Q501 808 491 813.50Q481 819 469 819Q446 819 431 805.50Q416 792 411 769L368 769Q375 812 402.50 836.50Q430 861 469 861Q490 861 506.50 853Q523 845 542 830Q557 818 568 812.50Q579 807 591 807Q614 807 629.50 820Q645 833 650 856L692 856Q684 814 657.50 789.50Q631 765 591 765M404 958L713 958L704 913L395 913L404 958Z"  horiz-adv-x="839" vert-adv-y="1000"  />

      
      <glyph glyph-name="uni0152" unicode="&#x0152;" d="M714 636L664 387L1027 387L1015 324L652 324L600 64L1021 64L1008 0L394 0Q290 0 215.50 35Q141 70 102.50 134.50Q64 199 64 285Q64 407 118 501Q172 595 270.50 647.50Q369 700 499 700L1134 700L1121 636L714 636M641 636L497 636Q388 636 306.50 591.50Q225 547 181 468Q137 389 137 289Q137 184 204.50 124Q272 64 401 64L527 64L641 636Z"  horiz-adv-x="1121" vert-adv-y="1000"  />

      
      <glyph glyph-name="uni50" unicode="&#x50;" d="M453 700Q571 700 637 648Q703 596 703 502Q703 368 616.50 294.50Q530 221 378 221L180 221L135 0L62 0L202 700L453 700M379 286Q499 286 564 339Q629 392 629 495Q629 564 582 600Q535 636 447 636L263 636L192 286L379 286Z"  horiz-adv-x="718" vert-adv-y="1000"  />

      
      <glyph glyph-name="unide" unicode="&#xde;" d="M437 609Q555 609 620 557Q685 505 685 410Q685 277 598 203.50Q511 130 360 130L161 130L135 0L62 0L202 700L275 700L257 609L437 609M362 194Q482 194 546.50 247.50Q611 301 611 404Q611 473 564.50 508.50Q518 544 430 544L244 544L174 194L362 194Z"  horiz-adv-x="718" vert-adv-y="1000"  />

      
      <glyph glyph-name="uni51" unicode="&#x51;" d="M590-80Q629-80 664-64.50Q699-49 725-19L757-64Q726-101 682-120Q638-139 588-139Q452-139 357-5Q265 0 199 38Q133 76 98.50 139.50Q64 203 64 285Q64 400 116 496.50Q168 593 264 649.50Q360 706 486 706Q588 706 661 669.50Q734 633 772.50 567.50Q811 502 811 415Q811 309 766.50 219Q722 129 640 70Q558 11 449-2Q505-80 590-80M137 289Q137 184 204 122Q271 60 395 60Q496 60 574 107.50Q652 155 694.50 235.50Q737 316 737 412Q737 516 670 578Q603 640 479 640Q378 640 300 592.50Q222 545 179.50 464.50Q137 384 137 289Z"  horiz-adv-x="839" vert-adv-y="1000"  />

      
      <glyph glyph-name="uni52" unicode="&#x52;" d="M704 502Q704 395 647.50 326.50Q591 258 489 234L621 0L541 0L415 223Q404 222 379 222L180 222L136 0L62 0L202 700L454 700Q573 700 638.50 648Q704 596 704 502M381 286Q501 286 565.50 339Q630 392 630 495Q630 564 583 600Q536 636 449 636L263 636L192 286L381 286Z"  horiz-adv-x="723" vert-adv-y="1000"  />

      
      <glyph glyph-name="uni0154" unicode="&#x0154;" d="M704 502Q704 395 647.50 326.50Q591 258 489 234L621 0L541 0L415 223Q404 222 379 222L180 222L136 0L62 0L202 700L454 700Q573 700 638.50 648Q704 596 704 502M381 286Q501 286 565.50 339Q630 392 630 495Q630 564 583 600Q536 636 449 636L263 636L192 286L381 286M552 881L649 881L474 757L400 757L552 881Z"  horiz-adv-x="723" vert-adv-y="1000"  />

      
      <glyph glyph-name="uni0158" unicode="&#x0158;" d="M704 502Q704 395 647.50 326.50Q591 258 489 234L621 0L541 0L415 223Q404 222 379 222L180 222L136 0L62 0L202 700L454 700Q573 700 638.50 648Q704 596 704 502M381 286Q501 286 565.50 339Q630 392 630 495Q630 564 583 600Q536 636 449 636L263 636L192 286L381 286M655 881L511 757L439 757L325 881L389 881L479 798L586 881L655 881Z"  horiz-adv-x="723" vert-adv-y="1000"  />

      
      <glyph glyph-name="uni0156" unicode="&#x0156;" d="M704 502Q704 395 647.50 326.50Q591 258 489 234L621 0L541 0L415 223Q404 222 379 222L180 222L136 0L62 0L202 700L454 700Q573 700 638.50 648Q704 596 704 502M381 286Q501 286 565.50 339Q630 392 630 495Q630 564 583 600Q536 636 449 636L263 636L192 286L381 286M288-104Q308-104 319.50-114Q331-124 331-140Q331-151 327-160.50Q323-170 313-186L270-262L232-262L269-179Q258-175 251.50-166.50Q245-158 245-147Q245-128 256.50-116Q268-104 288-104Z"  horiz-adv-x="723" vert-adv-y="1000"  />

      
      <glyph glyph-name="uni0210" unicode="&#x0210;" d="M704 502Q704 395 647.50 326.50Q591 258 489 234L621 0L541 0L415 223Q404 222 379 222L180 222L136 0L62 0L202 700L454 700Q573 700 638.50 648Q704 596 704 502M381 286Q501 286 565.50 339Q630 392 630 495Q630 564 583 600Q536 636 449 636L263 636L192 286L381 286M267 881L345 881L417 757L356 757L267 881M430 881L507 881L579 757L519 757L430 881Z"  horiz-adv-x="723" vert-adv-y="1000"  />

      
      <glyph glyph-name="uni1E5A" unicode="&#x1E5A;" d="M704 502Q704 395 647.50 326.50Q591 258 489 234L621 0L541 0L415 223Q404 222 379 222L180 222L136 0L62 0L202 700L454 700Q573 700 638.50 648Q704 596 704 502M381 286Q501 286 565.50 339Q630 392 630 495Q630 564 583 600Q536 636 449 636L263 636L192 286L381 286M281-190Q265-190 254.50-179.50Q244-169 244-152Q244-132 258.50-118Q273-104 293-104Q309-104 319.50-114.50Q330-125 330-141Q330-162 316-176Q302-190 281-190Z"  horiz-adv-x="723" vert-adv-y="1000"  />

      
      <glyph glyph-name="uni0212" unicode="&#x0212;" d="M704 502Q704 395 647.50 326.50Q591 258 489 234L621 0L541 0L415 223Q404 222 379 222L180 222L136 0L62 0L202 700L454 700Q573 700 638.50 648Q704 596 704 502M381 286Q501 286 565.50 339Q630 392 630 495Q630 564 583 600Q536 636 449 636L263 636L192 286L381 286M315 757Q325 816 370.50 851Q416 886 481 886Q545 886 584.50 850.50Q624 815 620 757L571 757Q573 796 547 819.50Q521 843 477 843Q434 843 403 819.50Q372 796 366 757L315 757Z"  horiz-adv-x="723" vert-adv-y="1000"  />

      
      <glyph glyph-name="uni1E5E" unicode="&#x1E5E;" d="M704 502Q704 395 647.50 326.50Q591 258 489 234L621 0L541 0L415 223Q404 222 379 222L180 222L136 0L62 0L202 700L454 700Q573 700 638.50 648Q704 596 704 502M381 286Q501 286 565.50 339Q630 392 630 495Q630 564 583 600Q536 636 449 636L263 636L192 286L381 286M137-122L446-122L437-169L129-169L137-122Z"  horiz-adv-x="723" vert-adv-y="1000"  />

      
      <glyph glyph-name="uni53" unicode="&#x53;" d="M266-6Q189-6 118.50 19Q48 44 12 83L48 141Q83 103 145 80Q207 57 273 57Q366 57 422.50 93.50Q479 130 479 195Q479 230 458 252Q437 274 405 287.50Q373 301 318 317Q253 336 212.50 353.50Q172 371 143.50 405.50Q115 440 115 495Q115 560 150.50 607.50Q186 655 249.50 680.50Q313 706 395 706Q458 706 515 690.50Q572 675 612 646L581 586Q543 614 494 628.50Q445 643 391 643Q299 643 243 605Q187 567 187 502Q187 466 209 443Q231 420 263.50 406.50Q296 393 351 377Q416 358 456 340.50Q496 323 524 290.50Q552 258 552 205Q552 139 515.50 91.50Q479 44 414.50 19Q350-6 266-6Z"  horiz-adv-x="615" vert-adv-y="1000"  />

      
      <glyph glyph-name="uni015A" unicode="&#x015A;" d="M266-6Q189-6 118.50 19Q48 44 12 83L48 141Q83 103 145 80Q207 57 273 57Q366 57 422.50 93.50Q479 130 479 195Q479 230 458 252Q437 274 405 287.50Q373 301 318 317Q253 336 212.50 353.50Q172 371 143.50 405.50Q115 440 115 495Q115 560 150.50 607.50Q186 655 249.50 680.50Q313 706 395 706Q458 706 515 690.50Q572 675 612 646L581 586Q543 614 494 628.50Q445 643 391 643Q299 643 243 605Q187 567 187 502Q187 466 209 443Q231 420 263.50 406.50Q296 393 351 377Q416 358 456 340.50Q496 323 524 290.50Q552 258 552 205Q552 139 515.50 91.50Q479 44 414.50 19Q350-6 266-6M503 881L600 881L425 757L351 757L503 881Z"  horiz-adv-x="615" vert-adv-y="1000"  />

      
      <glyph glyph-name="uni1E64" unicode="&#x1E64;" d="M266-6Q189-6 118.50 19Q48 44 12 83L48 141Q83 103 145 80Q207 57 273 57Q366 57 422.50 93.50Q479 130 479 195Q479 230 458 252Q437 274 405 287.50Q373 301 318 317Q253 336 212.50 353.50Q172 371 143.50 405.50Q115 440 115 495Q115 560 150.50 607.50Q186 655 249.50 680.50Q313 706 395 706Q458 706 515 690.50Q572 675 612 646L581 586Q543 614 494 628.50Q445 643 391 643Q299 643 243 605Q187 567 187 502Q187 466 209 443Q231 420 263.50 406.50Q296 393 351 377Q416 358 456 340.50Q496 323 524 290.50Q552 258 552 205Q552 139 515.50 91.50Q479 44 414.50 19Q350-6 266-6M489 866L578 866L421 757L355 757L489 866M455 912Q438 912 426.50 923Q415 934 415 952Q415 971 428 984.50Q441 998 460 998Q476 998 488.50 986.50Q501 975 501 957Q501 938 487.50 925Q474 912 455 912Z"  horiz-adv-x="615" vert-adv-y="1000"  />

      
      <glyph glyph-name="uniA78B" unicode="&#xA78B;" d="M172 700L244 700L157 297L91 297L172 700Z"  horiz-adv-x="241" vert-adv-y="1000"  />

      
      <glyph glyph-name="uni0160" unicode="&#x0160;" d="M266-6Q189-6 118.50 19Q48 44 12 83L48 141Q83 103 145 80Q207 57 273 57Q366 57 422.50 93.50Q479 130 479 195Q479 230 458 252Q437 274 405 287.50Q373 301 318 317Q253 336 212.50 353.50Q172 371 143.50 405.50Q115 440 115 495Q115 560 150.50 607.50Q186 655 249.50 680.50Q313 706 395 706Q458 706 515 690.50Q572 675 612 646L581 586Q543 614 494 628.50Q445 643 391 643Q299 643 243 605Q187 567 187 502Q187 466 209 443Q231 420 263.50 406.50Q296 393 351 377Q416 358 456 340.50Q496 323 524 290.50Q552 258 552 205Q552 139 515.50 91.50Q479 44 414.50 19Q350-6 266-6M606 881L462 757L390 757L276 881L340 881L430 798L537 881L606 881Z"  horiz-adv-x="615" vert-adv-y="1000"  />

      
      <glyph glyph-name="uni1E66" unicode="&#x1E66;" d="M266-6Q189-6 118.50 19Q48 44 12 83L48 141Q83 103 145 80Q207 57 273 57Q366 57 422.50 93.50Q479 130 479 195Q479 230 458 252Q437 274 405 287.50Q373 301 318 317Q253 336 212.50 353.50Q172 371 143.50 405.50Q115 440 115 495Q115 560 150.50 607.50Q186 655 249.50 680.50Q313 706 395 706Q458 706 515 690.50Q572 675 612 646L581 586Q543 614 494 628.50Q445 643 391 643Q299 643 243 605Q187 567 187 502Q187 466 209 443Q231 420 263.50 406.50Q296 393 351 377Q416 358 456 340.50Q496 323 524 290.50Q552 258 552 205Q552 139 515.50 91.50Q479 44 414.50 19Q350-6 266-6M601 851L459 757L389 757L271 851L338 851L427 792L531 851L601 851M450 889Q433 889 421.50 900Q410 911 410 929Q410 948 423 961.50Q436 975 455 975Q471 975 483.50 963.50Q496 952 496 934Q496 915 482.50 902Q469 889 450 889Z"  horiz-adv-x="615" vert-adv-y="1000"  />

      
      <glyph glyph-name="uni015E" unicode="&#x015E;" d="M266-6Q189-6 118.50 19Q48 44 12 83L48 141Q83 103 145 80Q207 57 273 57Q366 57 422.50 93.50Q479 130 479 195Q479 230 458 252Q437 274 405 287.50Q373 301 318 317Q253 336 212.50 353.50Q172 371 143.50 405.50Q115 440 115 495Q115 560 150.50 607.50Q186 655 249.50 680.50Q313 706 395 706Q458 706 515 690.50Q572 675 612 646L581 586Q543 614 494 628.50Q445 643 391 643Q299 643 243 605Q187 567 187 502Q187 466 209 443Q231 420 263.50 406.50Q296 393 351 377Q416 358 456 340.50Q496 323 524 290.50Q552 258 552 205Q552 139 515.50 91.50Q479 44 414.50 19Q350-6 266-6M209-220Q157-220 125-197L147-159Q173-178 214-178Q246-178 264-163.50Q282-149 282-125Q282-106 268-95.50Q254-85 227-85L205-85L247 6L290 6L264-51Q298-55 316-74Q334-93 334-122Q334-166 299.50-193Q265-220 209-220Z"  horiz-adv-x="615" vert-adv-y="1000"  />

      
      <glyph glyph-name="uni015C" unicode="&#x015C;" d="M266-6Q189-6 118.50 19Q48 44 12 83L48 141Q83 103 145 80Q207 57 273 57Q366 57 422.50 93.50Q479 130 479 195Q479 230 458 252Q437 274 405 287.50Q373 301 318 317Q253 336 212.50 353.50Q172 371 143.50 405.50Q115 440 115 495Q115 560 150.50 607.50Q186 655 249.50 680.50Q313 706 395 706Q458 706 515 690.50Q572 675 612 646L581 586Q543 614 494 628.50Q445 643 391 643Q299 643 243 605Q187 567 187 502Q187 466 209 443Q231 420 263.50 406.50Q296 393 351 377Q416 358 456 340.50Q496 323 524 290.50Q552 258 552 205Q552 139 515.50 91.50Q479 44 414.50 19Q350-6 266-6M520 757L430 840L322 757L254 757L397 881L469 881L584 757L520 757Z"  horiz-adv-x="615" vert-adv-y="1000"  />

      
      <glyph glyph-name="uni0218" unicode="&#x0218;" d="M266-6Q189-6 118.50 19Q48 44 12 83L48 141Q83 103 145 80Q207 57 273 57Q366 57 422.50 93.50Q479 130 479 195Q479 230 458 252Q437 274 405 287.50Q373 301 318 317Q253 336 212.50 353.50Q172 371 143.50 405.50Q115 440 115 495Q115 560 150.50 607.50Q186 655 249.50 680.50Q313 706 395 706Q458 706 515 690.50Q572 675 612 646L581 586Q543 614 494 628.50Q445 643 391 643Q299 643 243 605Q187 567 187 502Q187 466 209 443Q231 420 263.50 406.50Q296 393 351 377Q416 358 456 340.50Q496 323 524 290.50Q552 258 552 205Q552 139 515.50 91.50Q479 44 414.50 19Q350-6 266-6M239-104Q259-104 270.50-114Q282-124 282-140Q282-151 278-160.50Q274-170 264-186L221-262L183-262L220-179Q209-175 202.50-166.50Q196-158 196-147Q196-128 207.50-116Q219-104 239-104Z"  horiz-adv-x="615" vert-adv-y="1000"  />

      
      <glyph glyph-name="uni1E60" unicode="&#x1E60;" d="M266-6Q189-6 118.50 19Q48 44 12 83L48 141Q83 103 145 80Q207 57 273 57Q366 57 422.50 93.50Q479 130 479 195Q479 230 458 252Q437 274 405 287.50Q373 301 318 317Q253 336 212.50 353.50Q172 371 143.50 405.50Q115 440 115 495Q115 560 150.50 607.50Q186 655 249.50 680.50Q313 706 395 706Q458 706 515 690.50Q572 675 612 646L581 586Q543 614 494 628.50Q445 643 391 643Q299 643 243 605Q187 567 187 502Q187 466 209 443Q231 420 263.50 406.50Q296 393 351 377Q416 358 456 340.50Q496 323 524 290.50Q552 258 552 205Q552 139 515.50 91.50Q479 44 414.50 19Q350-6 266-6M430 780Q411 780 398 792.50Q385 805 385 823Q385 846 399.50 861Q414 876 436 876Q455 876 468 864Q481 852 481 833Q481 810 466 795Q451 780 430 780Z"  horiz-adv-x="615" vert-adv-y="1000"  />

      
      <glyph glyph-name="uni1E62" unicode="&#x1E62;" d="M266-6Q189-6 118.50 19Q48 44 12 83L48 141Q83 103 145 80Q207 57 273 57Q366 57 422.50 93.50Q479 130 479 195Q479 230 458 252Q437 274 405 287.50Q373 301 318 317Q253 336 212.50 353.50Q172 371 143.50 405.50Q115 440 115 495Q115 560 150.50 607.50Q186 655 249.50 680.50Q313 706 395 706Q458 706 515 690.50Q572 675 612 646L581 586Q543 614 494 628.50Q445 643 391 643Q299 643 243 605Q187 567 187 502Q187 466 209 443Q231 420 263.50 406.50Q296 393 351 377Q416 358 456 340.50Q496 323 524 290.50Q552 258 552 205Q552 139 515.50 91.50Q479 44 414.50 19Q350-6 266-6M232-190Q216-190 205.50-179.50Q195-169 195-152Q195-132 209.50-118Q224-104 244-104Q260-104 270.50-114.50Q281-125 281-141Q281-162 267-176Q253-190 232-190Z"  horiz-adv-x="615" vert-adv-y="1000"  />

      
      <glyph glyph-name="uni1E68" unicode="&#x1E68;" d="M266-6Q189-6 118.50 19Q48 44 12 83L48 141Q83 103 145 80Q207 57 273 57Q366 57 422.50 93.50Q479 130 479 195Q479 230 458 252Q437 274 405 287.50Q373 301 318 317Q253 336 212.50 353.50Q172 371 143.50 405.50Q115 440 115 495Q115 560 150.50 607.50Q186 655 249.50 680.50Q313 706 395 706Q458 706 515 690.50Q572 675 612 646L581 586Q543 614 494 628.50Q445 643 391 643Q299 643 243 605Q187 567 187 502Q187 466 209 443Q231 420 263.50 406.50Q296 393 351 377Q416 358 456 340.50Q496 323 524 290.50Q552 258 552 205Q552 139 515.50 91.50Q479 44 414.50 19Q350-6 266-6M232-190Q216-190 205.50-179.50Q195-169 195-152Q195-132 209.50-118Q224-104 244-104Q260-104 270.50-114.50Q281-125 281-141Q281-162 267-176Q253-190 232-190M430 780Q411 780 398 792.50Q385 805 385 823Q385 846 399.50 861Q414 876 436 876Q455 876 468 864Q481 852 481 833Q481 810 466 795Q451 780 430 780Z"  horiz-adv-x="615" vert-adv-y="1000"  />

      
      <glyph glyph-name="uni1E9E" unicode="&#x1E9E;" d="M697 584L493 399Q582 398 635 352Q688 306 688 227Q688 157 656 104Q624 51 565 22.50Q506-6 429-6Q387-6 347 1.50Q307 9 278 22L300 84Q357 57 431 57Q514 57 564 102Q614 147 614 224Q614 282 576 313Q538 344 468 344Q424 344 385 333L377 371L632 603Q574 643 477 643Q367 643 300.50 586Q234 529 212 417L129 0L56 0L140 424Q168 563 253.50 634.50Q339 706 483 706Q554 706 612 687.50Q670 669 706 633L697 584Z"  horiz-adv-x="756" vert-adv-y="1000"  />

      
      <glyph glyph-name="uni018F" unicode="&#x018F;" d="M470 706Q570 706 641.50 669.50Q713 633 750.50 567.50Q788 502 788 415Q788 300 737 203.50Q686 107 592.50 50.50Q499-6 377-6Q280-6 208.50 30.50Q137 67 99 132Q61 197 61 282Q61 315 73 375L712 375Q714 399 714 412Q714 517 649.50 578.50Q585 640 464 640Q395 640 335 619Q275 598 233 560L196 614Q244 658 316 682Q388 706 470 706M384 58Q463 58 528.50 91Q594 124 638.50 181.50Q683 239 702 312L134 312L133 286Q133 180 199.50 119Q266 58 384 58Z"  horiz-adv-x="817" vert-adv-y="1000"  />

      
      <glyph glyph-name="uni54" unicode="&#x54;" d="M325 636L78 636L91 700L658 700L644 636L398 636L271 0L198 0L325 636Z"  horiz-adv-x="574" vert-adv-y="1000"  />

      
      <glyph glyph-name="uni0166" unicode="&#x0166;" d="M325 636L78 636L91 700L658 700L644 636L398 636L271 0L198 0L325 636M115 375L502 375L491 316L103 316L115 375Z"  horiz-adv-x="574" vert-adv-y="1000"  />

      
      <glyph glyph-name="uni0164" unicode="&#x0164;" d="M325 636L78 636L91 700L658 700L644 636L398 636L271 0L198 0L325 636M573 881L429 757L357 757L243 881L307 881L397 798L504 881L573 881Z"  horiz-adv-x="574" vert-adv-y="1000"  />

      
      <glyph glyph-name="uni0162" unicode="&#x0162;" d="M325 636L78 636L91 700L658 700L644 636L398 636L271 0L198 0L325 636M176-220Q124-220 92-197L114-159Q140-178 181-178Q213-178 231-163.50Q249-149 249-125Q249-106 235-95.50Q221-85 194-85L172-85L214 6L257 6L231-51Q265-55 283-74Q301-93 301-122Q301-166 266.50-193Q232-220 176-220Z"  horiz-adv-x="574" vert-adv-y="1000"  />

      
      <glyph glyph-name="uni021A" unicode="&#x021A;" d="M325 636L78 636L91 700L658 700L644 636L398 636L271 0L198 0L325 636M206-104Q226-104 237.50-114Q249-124 249-140Q249-151 245-160.50Q241-170 231-186L188-262L150-262L187-179Q176-175 169.50-166.50Q163-158 163-147Q163-128 174.50-116Q186-104 206-104Z"  horiz-adv-x="574" vert-adv-y="1000"  />

      
      <glyph glyph-name="uni1E6C" unicode="&#x1E6C;" d="M325 636L78 636L91 700L658 700L644 636L398 636L271 0L198 0L325 636M199-190Q183-190 172.50-179.50Q162-169 162-152Q162-132 176.50-118Q191-104 211-104Q227-104 237.50-114.50Q248-125 248-141Q248-162 234-176Q220-190 199-190Z"  horiz-adv-x="574" vert-adv-y="1000"  />

      
      <glyph glyph-name="uni1E6E" unicode="&#x1E6E;" d="M325 636L78 636L91 700L658 700L644 636L398 636L271 0L198 0L325 636M55-122L364-122L355-169L47-169L55-122Z"  horiz-adv-x="574" vert-adv-y="1000"  />

      
      <glyph glyph-name="uni55" unicode="&#x55;" d="M361-6Q241-6 174.50 54Q108 114 108 221Q108 262 116 299L196 700L269 700L189 301Q181 259 181 230Q181 146 229 103Q277 60 367 60Q470 60 531.50 118.50Q593 177 618 301L698 700L770 700L690 296Q629-6 361-6Z"  horiz-adv-x="792" vert-adv-y="1000"  />

      
      <glyph glyph-name="unida" unicode="&#xda;" d="M361-6Q241-6 174.50 54Q108 114 108 221Q108 262 116 299L196 700L269 700L189 301Q181 259 181 230Q181 146 229 103Q277 60 367 60Q470 60 531.50 118.50Q593 177 618 301L698 700L770 700L690 296Q629-6 361-6M579 881L676 881L501 757L427 757L579 881Z"  horiz-adv-x="792" vert-adv-y="1000"  />

      
      <glyph glyph-name="uni016C" unicode="&#x016C;" d="M361-6Q241-6 174.50 54Q108 114 108 221Q108 262 116 299L196 700L269 700L189 301Q181 259 181 230Q181 146 229 103Q277 60 367 60Q470 60 531.50 118.50Q593 177 618 301L698 700L770 700L690 296Q629-6 361-6M505 752Q441 752 401.50 787.50Q362 823 366 881L415 881Q413 842 438.50 819Q464 796 509 796Q552 796 582.50 819Q613 842 619 881L671 881Q661 822 615.50 787Q570 752 505 752Z"  horiz-adv-x="792" vert-adv-y="1000"  />

      
      <glyph glyph-name="uni01D3" unicode="&#x01D3;" d="M361-6Q241-6 174.50 54Q108 114 108 221Q108 262 116 299L196 700L269 700L189 301Q181 259 181 230Q181 146 229 103Q277 60 367 60Q470 60 531.50 118.50Q593 177 618 301L698 700L770 700L690 296Q629-6 361-6M682 881L538 757L466 757L352 881L416 881L506 798L613 881L682 881Z"  horiz-adv-x="792" vert-adv-y="1000"  />

      
      <glyph glyph-name="unidb" unicode="&#xdb;" d="M361-6Q241-6 174.50 54Q108 114 108 221Q108 262 116 299L196 700L269 700L189 301Q181 259 181 230Q181 146 229 103Q277 60 367 60Q470 60 531.50 118.50Q593 177 618 301L698 700L770 700L690 296Q629-6 361-6M596 757L506 840L398 757L330 757L473 881L545 881L660 757L596 757Z"  horiz-adv-x="792" vert-adv-y="1000"  />

      
      <glyph glyph-name="uni0214" unicode="&#x0214;" d="M361-6Q241-6 174.50 54Q108 114 108 221Q108 262 116 299L196 700L269 700L189 301Q181 259 181 230Q181 146 229 103Q277 60 367 60Q470 60 531.50 118.50Q593 177 618 301L698 700L770 700L690 296Q629-6 361-6M294 881L372 881L444 757L383 757L294 881M457 881L534 881L606 757L546 757L457 881Z"  horiz-adv-x="792" vert-adv-y="1000"  />

      
      <glyph glyph-name="unidc" unicode="&#xdc;" d="M361-6Q241-6 174.50 54Q108 114 108 221Q108 262 116 299L196 700L269 700L189 301Q181 259 181 230Q181 146 229 103Q277 60 367 60Q470 60 531.50 118.50Q593 177 618 301L698 700L770 700L690 296Q629-6 361-6M416 780Q399 780 387 791Q375 802 375 818Q375 839 388.50 852.50Q402 866 420 866Q438 866 449.50 855Q461 844 461 826Q461 806 447.50 793Q434 780 416 780M594 780Q577 780 565.50 791Q554 802 554 818Q554 839 567 852.50Q580 866 599 866Q616 866 628 855Q640 844 640 826Q640 806 626.50 793Q613 780 594 780Z"  horiz-adv-x="792" vert-adv-y="1000"  />

      
      <glyph glyph-name="uni1EE4" unicode="&#x1EE4;" d="M361-6Q241-6 174.50 54Q108 114 108 221Q108 262 116 299L196 700L269 700L189 301Q181 259 181 230Q181 146 229 103Q277 60 367 60Q470 60 531.50 118.50Q593 177 618 301L698 700L770 700L690 296Q629-6 361-6M308-190Q292-190 281.50-179.50Q271-169 271-152Q271-132 285.50-118Q300-104 320-104Q336-104 346.50-114.50Q357-125 357-141Q357-162 343-176Q329-190 308-190Z"  horiz-adv-x="792" vert-adv-y="1000"  />

      
      <glyph glyph-name="unid9" unicode="&#xd9;" d="M361-6Q241-6 174.50 54Q108 114 108 221Q108 262 116 299L196 700L269 700L189 301Q181 259 181 230Q181 146 229 103Q277 60 367 60Q470 60 531.50 118.50Q593 177 618 301L698 700L770 700L690 296Q629-6 361-6M352 881L446 881L560 757L489 757L352 881Z"  horiz-adv-x="792" vert-adv-y="1000"  />

      
      <glyph glyph-name="uni1EE6" unicode="&#x1EE6;" d="M361-6Q241-6 174.50 54Q108 114 108 221Q108 262 116 299L196 700L269 700L189 301Q181 259 181 230Q181 146 229 103Q277 60 367 60Q470 60 531.50 118.50Q593 177 618 301L698 700L770 700L690 296Q629-6 361-6M493 781Q560 810 560 858Q560 877 546.50 889Q533 901 510 901Q480 901 449 882L433 918Q451 930 474 936.50Q497 943 520 943Q560 943 583.50 922.50Q607 902 607 867Q607 790 513 748L493 781Z"  horiz-adv-x="792" vert-adv-y="1000"  />

      
      <glyph glyph-name="uni01AF" unicode="&#x01AF;" d="M361-6Q241-6 174.50 54Q108 114 108 221Q108 262 116 299L196 700L269 700L189 301Q181 259 181 230Q181 146 229 103Q277 60 367 60Q470 60 531.50 118.50Q593 177 618 301L698 700L770 700L690 296Q629-6 361-6M737 701L752 701Q785 701 801.50 719.50Q818 738 818 768Q818 804 798 832L845 850Q871 812 871 766Q871 712 840 679Q809 646 752 646L737 646L737 701Z"  horiz-adv-x="798" vert-adv-y="1000"  />

      
      <glyph glyph-name="uni1EE8" unicode="&#x1EE8;" d="M361-6Q241-6 174.50 54Q108 114 108 221Q108 262 116 299L196 700L269 700L189 301Q181 259 181 230Q181 146 229 103Q277 60 367 60Q470 60 531.50 118.50Q593 177 618 301L698 700L770 700L690 296Q629-6 361-6M737 701L752 701Q785 701 801.50 719.50Q818 738 818 768Q818 804 798 832L845 850Q871 812 871 766Q871 712 840 679Q809 646 752 646L737 646L737 701M579 881L676 881L501 757L427 757L579 881Z"  horiz-adv-x="798" vert-adv-y="1000"  />

      
      <glyph glyph-name="uni1EF0" unicode="&#x1EF0;" d="M361-6Q241-6 174.50 54Q108 114 108 221Q108 262 116 299L196 700L269 700L189 301Q181 259 181 230Q181 146 229 103Q277 60 367 60Q470 60 531.50 118.50Q593 177 618 301L698 700L770 700L690 296Q629-6 361-6M737 701L752 701Q785 701 801.50 719.50Q818 738 818 768Q818 804 798 832L845 850Q871 812 871 766Q871 712 840 679Q809 646 752 646L737 646L737 701M308-190Q292-190 281.50-179.50Q271-169 271-152Q271-132 285.50-118Q300-104 320-104Q336-104 346.50-114.50Q357-125 357-141Q357-162 343-176Q329-190 308-190Z"  horiz-adv-x="798" vert-adv-y="1000"  />

      
      <glyph glyph-name="uni1EEA" unicode="&#x1EEA;" d="M361-6Q241-6 174.50 54Q108 114 108 221Q108 262 116 299L196 700L269 700L189 301Q181 259 181 230Q181 146 229 103Q277 60 367 60Q470 60 531.50 118.50Q593 177 618 301L698 700L770 700L690 296Q629-6 361-6M737 701L752 701Q785 701 801.50 719.50Q818 738 818 768Q818 804 798 832L845 850Q871 812 871 766Q871 712 840 679Q809 646 752 646L737 646L737 701M352 881L446 881L560 757L489 757L352 881Z"  horiz-adv-x="798" vert-adv-y="1000"  />

      
      <glyph glyph-name="uni1EEC" unicode="&#x1EEC;" d="M361-6Q241-6 174.50 54Q108 114 108 221Q108 262 116 299L196 700L269 700L189 301Q181 259 181 230Q181 146 229 103Q277 60 367 60Q470 60 531.50 118.50Q593 177 618 301L698 700L770 700L690 296Q629-6 361-6M737 701L752 701Q785 701 801.50 719.50Q818 738 818 768Q818 804 798 832L845 850Q871 812 871 766Q871 712 840 679Q809 646 752 646L737 646L737 701M493 781Q560 810 560 858Q560 877 546.50 889Q533 901 510 901Q480 901 449 882L433 918Q451 930 474 936.50Q497 943 520 943Q560 943 583.50 922.50Q607 902 607 867Q607 790 513 748L493 781Z"  horiz-adv-x="798" vert-adv-y="1000"  />

      
      <glyph glyph-name="uni1EEE" unicode="&#x1EEE;" d="M361-6Q241-6 174.50 54Q108 114 108 221Q108 262 116 299L196 700L269 700L189 301Q181 259 181 230Q181 146 229 103Q277 60 367 60Q470 60 531.50 118.50Q593 177 618 301L698 700L770 700L690 296Q629-6 361-6M737 701L752 701Q785 701 801.50 719.50Q818 738 818 768Q818 804 798 832L845 850Q871 812 871 766Q871 712 840 679Q809 646 752 646L737 646L737 701M572 763Q550 763 533 773Q516 783 496 801Q479 816 467 823.50Q455 831 441 831Q419 831 404 813.50Q389 796 384 767L341 767Q349 819 376 848Q403 877 442 877Q464 877 480.50 867.50Q497 858 519 839Q535 824 546.50 816.50Q558 809 572 809Q594 809 609.50 826Q625 843 630 871L673 871Q665 820 638.50 791.50Q612 763 572 763Z"  horiz-adv-x="798" vert-adv-y="1000"  />

      
      <glyph glyph-name="uni0170" unicode="&#x0170;" d="M361-6Q241-6 174.50 54Q108 114 108 221Q108 262 116 299L196 700L269 700L189 301Q181 259 181 230Q181 146 229 103Q277 60 367 60Q470 60 531.50 118.50Q593 177 618 301L698 700L770 700L690 296Q629-6 361-6M490 881L572 881L446 757L380 757L490 881M653 881L735 881L608 757L544 757L653 881Z"  horiz-adv-x="792" vert-adv-y="1000"  />

      
      <glyph glyph-name="uni0216" unicode="&#x0216;" d="M361-6Q241-6 174.50 54Q108 114 108 221Q108 262 116 299L196 700L269 700L189 301Q181 259 181 230Q181 146 229 103Q277 60 367 60Q470 60 531.50 118.50Q593 177 618 301L698 700L770 700L690 296Q629-6 361-6M342 757Q352 816 397.50 851Q443 886 508 886Q572 886 611.50 850.50Q651 815 647 757L598 757Q600 796 574 819.50Q548 843 504 843Q461 843 430 819.50Q399 796 393 757L342 757Z"  horiz-adv-x="792" vert-adv-y="1000"  />

      
      <glyph glyph-name="uni016A" unicode="&#x016A;" d="M361-6Q241-6 174.50 54Q108 114 108 221Q108 262 116 299L196 700L269 700L189 301Q181 259 181 230Q181 146 229 103Q277 60 367 60Q470 60 531.50 118.50Q593 177 618 301L698 700L770 700L690 296Q629-6 361-6M357 842L666 842L656 795L348 795L357 842Z"  horiz-adv-x="792" vert-adv-y="1000"  />

      
      <glyph glyph-name="uni1E7A" unicode="&#x1E7A;" d="M361-6Q241-6 174.50 54Q108 114 108 221Q108 262 116 299L196 700L269 700L189 301Q181 259 181 230Q181 146 229 103Q277 60 367 60Q470 60 531.50 118.50Q593 177 618 301L698 700L770 700L690 296Q629-6 361-6M354 827L663 827L654 782L345 782L354 827M443 913Q426 913 414.50 923.50Q403 934 403 950Q403 970 416 983Q429 996 447 996Q464 996 475.50 985Q487 974 487 958Q487 938 474 925.50Q461 913 443 913M619 913Q602 913 590.50 923.50Q579 934 579 950Q579 970 592 983Q605 996 623 996Q640 996 651.50 985Q663 974 663 958Q663 938 650 925.50Q637 913 619 913Z"  horiz-adv-x="792" vert-adv-y="1000"  />

      
      <glyph glyph-name="uni0172" unicode="&#x0172;" d="M770 700L690 296Q640 48 453 4Q368-16 322.50-53Q277-90 277-130Q277-152 291-164Q305-176 330-176Q366-176 398-157L409-196Q367-220 319-220Q276-220 249.50-198Q223-176 223-138Q223-61 323-4Q220 5 164 64Q108 123 108 221Q108 254 116 299L196 700L269 700L189 301Q181 259 181 230Q181 146 229 103Q277 60 367 60Q470 60 531.50 118.50Q593 177 618 301L698 700L770 700Z"  horiz-adv-x="792" vert-adv-y="1000"  />

      
      <glyph glyph-name="uni016E" unicode="&#x016E;" d="M361-6Q241-6 174.50 54Q108 114 108 221Q108 262 116 299L196 700L269 700L189 301Q181 259 181 230Q181 146 229 103Q277 60 367 60Q470 60 531.50 118.50Q593 177 618 301L698 700L770 700L690 296Q629-6 361-6M518 770Q473 770 443.50 800Q414 830 414 872Q414 915 444 946Q474 977 518 977Q562 977 592 946Q622 915 622 872Q622 830 592 800Q562 770 518 770M518 805Q548 805 567 824Q586 843 586 872Q586 901 566.50 921.50Q547 942 518 942Q489 942 469.50 922Q450 902 450 872Q450 843 469 824Q488 805 518 805Z"  horiz-adv-x="792" vert-adv-y="1000"  />

      
      <glyph glyph-name="uni0168" unicode="&#x0168;" d="M361-6Q241-6 174.50 54Q108 114 108 221Q108 262 116 299L196 700L269 700L189 301Q181 259 181 230Q181 146 229 103Q277 60 367 60Q470 60 531.50 118.50Q593 177 618 301L698 700L770 700L690 296Q629-6 361-6M572 763Q550 763 533 773Q516 783 496 801Q479 816 467 823.50Q455 831 441 831Q419 831 404 813.50Q389 796 384 767L341 767Q349 819 376 848Q403 877 442 877Q464 877 480.50 867.50Q497 858 519 839Q535 824 546.50 816.50Q558 809 572 809Q594 809 609.50 826Q625 843 630 871L673 871Q665 820 638.50 791.50Q612 763 572 763Z"  horiz-adv-x="792" vert-adv-y="1000"  />

      
      <glyph glyph-name="uni1E78" unicode="&#x1E78;" d="M361-6Q241-6 174.50 54Q108 114 108 221Q108 262 116 299L196 700L269 700L189 301Q181 259 181 230Q181 146 229 103Q277 60 367 60Q470 60 531.50 118.50Q593 177 618 301L698 700L770 700L690 296Q629-6 361-6M567 765Q545 765 528.50 773Q512 781 493 796Q477 808 467 813.50Q457 819 445 819Q422 819 407 805.50Q392 792 387 769L344 769Q351 812 378.50 836.50Q406 861 445 861Q466 861 482.50 853Q499 845 518 830Q533 818 544 812.50Q555 807 567 807Q590 807 605.50 820Q621 833 626 856L668 856Q660 814 633.50 789.50Q607 765 567 765M591 998L680 998L523 889L457 889L591 998Z"  horiz-adv-x="792" vert-adv-y="1000"  />

      
      <glyph glyph-name="uni56" unicode="&#x56;" d="M783 700L333 0L261 0L90 700L166 700L313 93L705 700L783 700Z"  horiz-adv-x="698" vert-adv-y="1000"  />

      
      <glyph glyph-name="uni57" unicode="&#x57;" d="M1163 700L787 0L709 0L623 594L297 0L219 0L123 700L196 700L279 97L608 700L677 700L762 96L1089 700L1163 700Z"  horiz-adv-x="1111" vert-adv-y="1000"  />

      
      <glyph glyph-name="uni1E82" unicode="&#x1E82;" d="M1163 700L787 0L709 0L623 594L297 0L219 0L123 700L196 700L279 97L608 700L677 700L762 96L1089 700L1163 700M739 881L836 881L661 757L587 757L739 881Z"  horiz-adv-x="1111" vert-adv-y="1000"  />

      
      </font>
</defs>
</svg>
